<?xml version="1.0" standalone="no"?>
<!DOCTYPE svg PUBLIC "-//W3C//DTD SVG 20010904//EN"
 "http://www.w3.org/TR/2001/REC-SVG-20010904/DTD/svg10.dtd">
<svg version="1.0" xmlns="http://www.w3.org/2000/svg"
 width="800.000000pt" height="800.000000pt" viewBox="0 0 800.000000 800.000000"
 preserveAspectRatio="xMidYMid meet">
<metadata>
Created by potrace 1.14, written by Peter Selinger 2001-2017
</metadata>
<g transform="translate(0.000000,800.000000) scale(0.100000,-0.100000)"
fill="#000000" stroke="none">
<path d="M0 6588 c0 -1375 0 -1411 19 -1394 10 9 26 34 36 55 12 29 25 40 46
45 19 4 37 19 55 48 15 23 34 49 41 57 20 19 33 56 33 91 0 25 4 29 32 32 l31
3 1 125 c1 136 -11 208 -44 271 -23 46 -19 79 11 79 11 0 22 7 25 15 4 8 11
15 17 15 22 0 87 -34 87 -46 0 -7 8 -15 17 -18 10 -4 25 -20 33 -38 16 -31 50
-48 50 -25 0 7 4 6 9 -3 6 -8 7 -18 5 -22 -3 -4 2 -8 10 -8 9 0 16 -6 16 -13
0 -8 11 -19 25 -25 14 -7 30 -23 35 -37 5 -14 14 -25 20 -25 6 0 18 -6 25 -14
14 -14 112 -33 121 -23 3 3 -5 16 -18 30 -13 14 -30 35 -38 47 -36 52 -47 60
-105 66 -44 5 -59 11 -63 26 -2 10 -8 18 -13 18 -4 0 -15 15 -24 34 -18 38
-51 76 -65 76 -6 0 -10 5 -10 11 0 6 -12 26 -26 45 -30 38 -27 80 6 92 10 4
18 9 18 12 -1 3 2 21 6 41 6 32 11 38 40 43 18 3 41 13 52 20 18 14 18 15 -8
25 -14 5 -29 14 -32 20 -4 6 -14 7 -23 4 -9 -3 -21 0 -27 8 -6 8 -18 14 -26
14 -10 0 -16 12 -18 38 l-3 37 40 0 c52 0 71 8 71 31 0 10 6 19 13 19 8 0 24
11 36 24 l23 24 -28 15 c-16 7 -46 13 -66 12 -21 -1 -35 1 -32 4 3 3 11 6 17
6 7 0 13 10 13 23 1 12 9 31 18 41 17 18 16 20 -1 30 -14 8 -15 11 -3 11 12 0
11 4 -4 15 -10 8 -24 12 -30 8 -6 -3 -8 -3 -4 2 5 5 -1 14 -12 22 -11 8 -20
23 -20 34 0 11 -7 34 -17 52 -19 37 -26 80 -12 71 6 -3 21 1 34 10 28 18 35
19 54 7 12 -8 12 -12 2 -25 -15 -18 -10 -62 7 -58 25 5 50 -18 57 -50 12 -60
16 -68 43 -82 20 -10 26 -21 26 -47 1 -29 8 -38 60 -73 54 -37 65 -41 123 -41
67 0 88 13 77 48 -4 12 0 17 13 18 10 1 27 2 38 3 31 2 42 48 19 79 -10 15
-23 27 -29 27 -13 1 -45 65 -45 90 0 24 38 60 63 60 35 0 11 23 -43 40 -30 10
-49 18 -42 19 6 1 12 8 12 17 0 10 -7 14 -22 12 -13 -2 -23 -10 -23 -18 0 -8
10 -19 23 -25 31 -14 29 -45 -3 -45 -14 0 -28 7 -31 15 -4 9 -19 15 -35 15
-24 0 -29 4 -29 25 0 20 -5 25 -25 25 -31 0 -53 35 -27 45 25 10 113 26 140
26 13 -1 40 8 60 19 22 11 30 19 20 20 -10 0 -18 7 -18 15 0 19 48 38 69 28
18 -8 28 -10 54 -12 10 0 15 -5 12 -11 -3 -5 1 -10 9 -10 27 0 28 20 2 30 -14
5 -26 16 -26 25 0 18 -6 18 -85 5 -33 -5 -81 -6 -105 -2 -27 5 -56 4 -73 -2
-24 -9 -30 -7 -58 24 -30 32 -31 35 -19 74 12 39 13 48 8 44 -8 -5 -49 25 -58
42 -9 16 -6 22 17 33 16 8 49 18 76 21 36 6 47 11 47 26 0 24 -22 31 -101 36
-71 3 -123 19 -114 33 3 6 14 8 25 6 11 -2 20 0 20 4 0 5 11 11 25 13 13 3 22
2 20 -3 -5 -8 2 -7 45 5 38 10 110 15 114 7 2 -3 55 -6 117 -6 98 0 114 3 117
17 4 20 -47 38 -109 38 -77 0 -153 14 -176 33 -7 5 -13 6 -13 2 0 -4 -6 -2
-13 4 -8 6 -16 9 -19 6 -3 -3 -11 2 -19 12 -8 9 -9 14 -3 10 6 -3 18 3 27 14
10 11 22 17 27 14 6 -3 10 -2 10 2 0 5 25 9 55 9 51 -1 81 15 43 22 -20 4 -73
54 -89 84 -6 12 -17 17 -26 14 -20 -8 -139 111 -145 146 -5 28 -2 29 62 19 3
-1 -2 -6 -10 -11 -11 -7 -11 -10 -2 -10 7 0 10 -5 7 -10 -4 -6 -3 -10 2 -9 4
1 11 0 16 -1 19 -5 85 -2 95 4 6 3 17 -3 25 -15 l15 -20 16 23 c11 15 16 17
16 8 1 -11 3 -11 11 3 14 24 2 62 -15 48 -9 -8 -13 -7 -13 3 0 14 26 14 48 1
6 -4 5 2 -3 14 -7 11 -19 23 -26 26 -7 2 -10 0 -7 -5 3 -6 1 -10 -4 -10 -6 0
-11 7 -11 15 0 8 -3 14 -7 14 -23 -4 -43 2 -38 11 4 7 -122 10 -369 10 l-376
0 0 -1412z m376 375 c-1 -7 -6 -16 -10 -20 -4 -4 -6 -1 -4 7 2 8 -2 14 -9 15
-23 0 -22 11 1 11 13 0 23 -6 22 -13z m264 -7 c0 -2 -7 -7 -16 -10 -8 -3 -12
-2 -9 4 6 10 25 14 25 6z m133 -302 c-4 -12 -8 -13 -14 -3 -9 15 -2 32 11 24
5 -3 6 -13 3 -21z"/>
<path d="M823 7987 c-3 -5 -2 -12 3 -16 10 -7 34 -47 34 -57 0 -3 -7 -4 -14
-1 -10 4 -13 1 -10 -8 7 -16 -13 -56 -25 -52 -9 2 -11 -3 -11 -22 0 -11 55
-22 75 -14 10 3 14 12 10 21 -5 12 -1 12 15 -3 41 -37 79 -22 84 35 1 8 8 14
15 12 7 -1 10 2 7 7 -9 14 5 20 53 22 43 3 60 12 41 24 -15 9 -2 25 15 19 8
-4 12 -10 9 -15 -9 -15 3 -10 17 8 12 15 12 16 -1 8 -9 -5 -8 0 4 13 24 28 29
28 21 0 -5 -18 -4 -20 4 -8 9 12 11 12 11 1 0 -11 5 -10 21 5 l20 18 -23 9
c-30 11 -368 5 -375 -6z m43 -15 c1 -7 3 -14 4 -17 3 -7 7 -22 9 -36 0 -5 5
-8 10 -4 5 3 13 0 17 -6 4 -7 3 -9 -3 -6 -6 4 -16 0 -22 -7 -8 -9 -8 -17 -2
-20 5 -3 11 -1 13 5 2 6 9 -2 16 -17 10 -24 10 -26 0 -13 -19 24 -24 25 -41
11 -11 -9 -17 -10 -22 -2 -4 6 -4 14 -1 17 3 4 6 1 6 -6 0 -7 5 -9 11 -5 8 4
8 9 0 17 -7 7 -7 14 0 24 9 9 8 17 -1 28 -7 8 -9 15 -5 15 5 0 0 9 -9 19 -17
19 -17 19 1 17 10 -2 19 -8 19 -14z m28 1 c-5 -15 -3 -15 10 1 9 11 16 15 16
9 0 -7 -5 -15 -10 -18 -6 -4 -7 -12 -4 -18 4 -7 -1 -5 -11 5 -9 9 -14 21 -11
27 11 17 16 13 10 -6z m117 1 c13 -7 -5 -65 -23 -78 -11 -8 -17 -19 -14 -25 4
-5 2 -12 -2 -15 -11 -7 -10 44 1 62 10 15 -14 12 -25 -3 -5 -6 -8 -3 -8 7 0 9
-5 18 -11 20 -7 2 -9 13 -5 26 7 20 12 22 44 16 20 -4 40 -8 43 -10z"/>
<path d="M980 7910 c-9 -6 -10 -10 -3 -10 6 0 15 5 18 10 8 12 4 12 -15 0z"/>
<path d="M1298 7993 c18 -2 30 -9 27 -14 -4 -5 -1 -9 4 -9 6 0 11 7 11 15 0
11 -10 15 -37 13 -38 -1 -38 -1 -5 -5z"/>
<path d="M1350 7983 c0 -8 -7 -16 -15 -19 -8 -4 -12 -10 -9 -16 3 -5 15 -3 29
6 19 12 25 13 34 2 6 -7 8 -16 4 -19 -3 -4 2 -9 11 -13 9 -3 16 -10 16 -16 0
-5 -4 -6 -10 -3 -6 3 -7 -1 -4 -10 9 -21 16 -12 20 26 4 29 2 30 -14 18 -15
-13 -16 -12 -3 4 12 16 9 22 -12 18 -5 -1 -5 4 -1 10 4 8 3 9 -4 5 -8 -4 -10
-2 -6 8 4 10 0 14 -15 13 -12 -1 -21 -7 -21 -14z m30 3 c0 -2 -8 -10 -17 -17
-16 -13 -17 -12 -4 4 13 16 21 21 21 13z"/>
<path d="M1400 7992 c0 -5 9 -17 20 -27 13 -12 18 -27 16 -46 -2 -16 0 -32 5
-35 5 -3 9 1 9 8 0 9 3 9 10 -2 9 -13 10 -13 10 0 0 13 2 13 9 1 5 -8 16 -11
24 -8 11 4 14 1 11 -8 -4 -10 0 -13 15 -10 13 2 21 -1 21 -9 0 -7 9 -17 20
-22 10 -5 35 -31 54 -58 30 -43 33 -52 24 -78 -8 -22 -7 -32 2 -41 10 -9 12
-8 7 5 -3 10 -3 20 2 22 12 8 9 -27 -4 -47 -11 -16 -13 -16 -19 -2 -3 10 -11
13 -18 8 -21 -12 -39 -12 -31 0 4 7 7 21 5 32 l-2 20 9 -20 c7 -14 10 -15 10
-5 1 13 2 13 11 0 6 -9 10 -10 10 -3 0 6 3 20 7 30 6 15 5 16 -9 5 -13 -10
-18 -10 -24 -1 -5 8 -3 9 6 4 9 -5 11 -4 6 3 -12 20 -44 -8 -38 -32 5 -19 4
-20 -14 -6 -18 14 -18 14 -2 -5 18 -22 20 -33 8 -55 -10 -20 6 -60 25 -60 8 0
15 -5 15 -10 0 -6 20 -30 45 -53 41 -40 45 -47 45 -93 0 -32 -3 -44 -9 -35 -7
11 -11 9 -20 -8 -6 -11 -15 -20 -19 -20 -28 5 -34 -2 -14 -17 12 -8 22 -21 22
-28 0 -15 42 -36 70 -36 11 0 20 -6 20 -14 0 -7 10 -16 21 -19 18 -5 21 -12
17 -37 -5 -30 -4 -31 31 -29 48 4 58 -4 66 -51 4 -22 11 -40 15 -40 13 0 37
27 61 69 19 34 24 38 36 25 8 -8 19 -12 24 -8 6 3 16 0 24 -6 12 -10 21 -10
43 -1 23 10 29 19 30 43 1 37 12 51 12 15 0 -20 10 -33 40 -52 22 -14 41 -25
44 -25 2 0 6 12 9 27 5 29 -16 59 -48 64 -14 3 -20 13 -20 34 -3 71 -38 108
-49 53 -7 -37 -14 -33 -19 8 -4 39 -14 53 -42 64 -13 5 -25 19 -27 32 -2 18
-9 23 -30 21 -26 -2 -36 11 -44 55 -1 8 -10 22 -19 32 -17 19 -12 46 6 35 5
-4 8 2 7 12 -3 38 3 51 25 58 12 4 25 7 29 6 13 -1 18 37 8 63 -5 14 -21 31
-35 36 -18 7 -25 17 -25 35 0 33 -24 33 -46 0 -9 -14 -20 -22 -25 -19 -5 3 -9
0 -9 -7 0 -8 -4 -8 -15 1 -32 27 0 -52 41 -103 24 -28 23 -57 -2 -57 -20 0
-47 -47 -41 -70 3 -11 2 -18 -3 -15 -4 3 -13 -2 -20 -10 -22 -26 -28 -16 -18
33 12 66 1 138 -33 200 -16 29 -29 60 -29 68 0 8 -15 24 -33 34 -23 14 -38 32
-45 58 -6 20 -22 49 -36 63 -13 14 -27 35 -30 47 -7 21 -14 22 -102 22 -52 0
-94 -4 -94 -8z m43 -18 c-1 -5 3 -15 9 -21 19 -23 2 -14 -21 11 -21 22 -21 24
-5 22 11 -2 18 -7 17 -12z m41 -53 c-8 -8 -34 -10 -38 -2 -3 4 6 7 19 7 14 0
22 -2 19 -5z m264 -407 c-10 -10 -28 6 -28 24 0 15 1 15 17 -1 9 -9 14 -19 11
-23z m130 -111 c5 -10 12 -35 16 -55 6 -31 4 -38 -9 -38 -8 0 -15 6 -15 13 0
8 -9 24 -20 37 -11 13 -20 28 -20 35 0 29 35 34 48 8z m-180 -89 c0 -17 -3
-22 -8 -13 -5 6 -6 18 -3 26 8 19 11 16 11 -13z m332 -25 c0 -20 -15 -26 -25
-9 -9 15 3 43 15 35 5 -3 10 -15 10 -26z"/>
<path d="M7212 7980 c-15 -25 -15 -31 1 -27 6 1 11 -4 9 -11 -1 -8 2 -11 8 -7
6 3 8 11 5 16 -4 5 -2 9 3 9 17 0 22 -13 9 -29 -10 -14 -10 -14 5 -3 9 8 16
19 14 25 -1 7 -1 9 1 5 3 -5 9 -8 14 -8 6 0 7 5 3 12 -5 7 -3 8 5 3 7 -4 11
-18 8 -32 -4 -23 -2 -25 29 -21 22 3 34 0 34 -8 0 -6 13 -14 29 -16 19 -3 28
-1 24 6 -3 6 0 6 7 -1 13 -12 4 -37 -11 -28 -5 4 -9 2 -9 -3 0 -5 10 -12 22
-15 12 -4 19 -9 15 -13 -4 -4 0 -15 8 -24 14 -15 14 -18 0 -30 -8 -7 -15 -22
-15 -34 0 -11 -5 -28 -11 -36 -8 -12 -9 -9 -5 10 l6 25 -12 -24 c-10 -20 -9
-25 6 -37 11 -7 23 -11 28 -8 5 3 38 7 74 7 46 2 63 -1 60 -10 -3 -6 3 -17 12
-25 15 -11 15 -11 5 2 -8 10 -9 21 -3 30 6 8 10 11 10 6 0 -5 8 -2 18 5 15 12
16 12 6 -1 -5 -8 -10 -22 -9 -30 1 -29 -18 -40 -40 -22 -17 14 -18 15 -7 1 6
-9 8 -19 4 -23 -4 -4 -2 -7 3 -6 6 1 17 2 25 0 11 -1 9 -4 -5 -10 -18 -8 -17
-9 8 -9 24 -1 27 -4 23 -26 -3 -15 -1 -23 5 -20 5 4 7 10 5 14 -3 4 0 13 5 21
6 10 7 2 4 -25 -3 -27 -1 -35 5 -25 13 21 16 13 23 -57 5 -41 3 -63 -4 -63 -5
0 -8 4 -4 9 3 5 1 12 -3 15 -5 3 -9 -6 -8 -21 1 -17 -5 -27 -16 -29 -10 -1
-18 2 -18 6 0 5 -3 16 -7 26 -5 14 -3 16 12 10 11 -4 16 -4 12 0 -4 4 -2 13 4
20 8 10 5 11 -13 7 -18 -4 -20 -3 -8 6 13 9 12 11 -3 11 -10 0 -16 4 -13 9 4
5 -9 6 -29 1 -19 -4 -37 -5 -41 -1 -4 3 -4 0 0 -6 4 -8 2 -13 -6 -13 -11 0
-11 -2 0 -9 7 -4 14 -24 15 -43 1 -20 5 -34 9 -32 4 2 9 0 13 -6 3 -5 2 -10
-4 -10 -6 0 -8 -6 -5 -13 10 -27 10 -87 0 -91 -6 -2 -5 -5 3 -5 8 -1 5 -7 -9
-19 -29 -23 -38 -92 -16 -115 9 -9 19 -29 22 -46 4 -16 12 -32 20 -35 19 -7
18 -36 -1 -36 -16 0 -20 -30 -6 -45 5 -6 12 -20 15 -31 5 -18 1 -23 -21 -30
-15 -4 -32 -8 -37 -8 -5 -1 -11 -7 -13 -13 -3 -9 7 -13 30 -13 20 0 38 6 40
13 4 9 6 9 6 -1 1 -7 8 -20 16 -29 8 -8 12 -19 9 -24 -9 -14 86 -8 117 7 25
12 36 44 15 44 -5 0 -1 7 10 16 10 8 13 13 7 9 -9 -4 -13 1 -13 15 0 12 5 18
10 15 6 -3 10 -1 10 5 0 6 4 9 8 6 5 -3 9 1 9 9 0 8 -4 12 -9 9 -13 -9 -9 6 7
22 8 9 15 12 15 7 0 -16 38 -12 52 5 7 9 8 13 2 9 -7 -4 -14 3 -16 18 -3 14 0
26 8 29 7 3 12 14 11 25 0 11 -5 18 -9 15 -4 -3 -5 -11 -1 -19 3 -8 0 -15 -5
-15 -11 0 -7 44 5 63 3 6 2 7 -4 4 -5 -3 -10 0 -10 8 0 8 4 12 9 9 10 -7 6 26
-7 46 -16 26 -14 38 9 36 11 -1 29 6 39 16 9 10 13 18 8 18 -5 0 -8 8 -6 18 2
9 4 21 4 26 1 5 11 1 24 -10 12 -10 16 -12 10 -4 -7 8 -13 21 -13 30 1 13 2
13 13 -1 7 -8 26 -15 42 -15 l30 1 3 353 2 352 -387 0 c-376 0 -389 -1 -401
-20z m239 -114 c-8 -10 -9 -16 -1 -21 5 -3 10 0 11 7 0 10 2 10 6 0 2 -6 8
-10 11 -8 4 2 13 -3 20 -10 11 -13 10 -14 -13 -10 -14 3 -23 1 -20 -5 4 -5 11
-7 16 -4 13 8 11 -19 -2 -32 -8 -8 -8 -13 0 -18 6 -3 11 -3 10 2 -1 4 1 16 5
25 7 16 10 16 27 -6 28 -35 24 -41 -23 -40 -43 1 -58 15 -39 38 8 10 7 16 -4
26 -8 7 -13 16 -10 20 3 5 1 12 -5 15 -10 6 4 35 17 35 3 0 0 -6 -6 -14z m145
-28 c-16 -54 -17 -54 -28 -34 -9 15 -7 22 8 33 22 16 24 16 20 1z m-26 -92 c0
-2 -8 -10 -17 -17 -16 -13 -17 -12 -4 4 13 16 21 21 21 13z m240 -631 c-5 -7
-8 -14 -5 -17 3 -2 -2 -5 -10 -5 -10 0 -12 4 -5 12 5 7 8 14 5 17 -3 2 2 5 10
5 10 0 12 -4 5 -12z"/>
<path d="M7503 7765 c0 -8 4 -12 9 -9 5 3 6 10 3 15 -9 13 -12 11 -12 -6z"/>
<path d="M7271 7926 c-8 -10 -9 -16 -1 -21 6 -3 7 -11 4 -17 -4 -7 -2 -8 5 -4
8 6 9 12 2 20 -7 9 -7 16 1 24 7 7 9 12 6 12 -3 0 -11 -6 -17 -14z"/>
<path d="M7062 7895 c-23 -29 -18 -65 9 -65 24 0 42 35 35 66 -8 31 -20 30
-44 -1z"/>
<path d="M7315 7880 c8 -9 12 -21 8 -25 -5 -5 0 -3 10 4 20 16 22 22 5 19 -7
-2 -12 2 -11 8 1 6 -5 11 -13 11 -12 0 -12 -3 1 -17z"/>
<path d="M7356 7863 c-6 -14 -5 -15 5 -6 7 7 10 15 7 18 -3 3 -9 -2 -12 -12z"/>
<path d="M990 7845 c-7 -14 -10 -28 -7 -32 4 -3 7 -1 7 7 0 10 4 10 18 -1 15
-12 16 -12 4 2 -7 9 -10 24 -6 33 10 25 -1 19 -16 -9z"/>
<path d="M1127 7839 c-4 -14 -10 -18 -19 -14 -7 4 -2 -4 13 -19 14 -15 41 -29
61 -32 32 -6 37 -3 54 24 10 17 21 29 25 26 4 -2 10 0 13 4 6 10 -40 10 -49 0
-4 -3 -20 -2 -37 3 -20 5 -36 5 -44 -2 -9 -8 -11 -5 -7 10 3 12 3 21 0 21 -2
0 -7 -9 -10 -21z"/>
<path d="M7380 7854 c0 -6 7 -17 15 -24 9 -7 13 -15 10 -18 -3 -3 -15 3 -27
14 -14 12 -18 13 -10 3 6 -9 9 -18 7 -21 -3 -3 5 -5 17 -4 33 3 41 -4 26 -22
-12 -15 -11 -16 5 -3 16 12 16 16 2 31 -8 9 -12 20 -8 25 5 4 3 5 -4 1 -6 -3
-16 2 -22 11 -6 10 -11 13 -11 7z"/>
<path d="M6964 7785 c-27 -19 -44 -35 -39 -35 6 0 -5 -8 -23 -17 -26 -12 -36
-13 -41 -4 -8 12 -41 5 -41 -9 0 -4 -18 -15 -40 -24 -24 -9 -49 -30 -62 -51
-13 -19 -30 -37 -40 -40 -9 -3 -23 -17 -32 -30 -9 -14 -21 -25 -26 -25 -15 0
-12 26 5 40 8 7 15 17 15 22 0 6 -48 -39 -107 -99 -60 -60 -120 -116 -135
-125 -14 -10 -55 -52 -90 -95 -105 -128 -218 -234 -306 -288 -46 -27 -96 -65
-113 -83 -27 -29 -70 -53 -162 -90 -29 -12 -114 -5 -123 9 -7 12 -51 11 -73
-1 -36 -19 -95 -18 -135 2 -25 13 -53 19 -77 16 -20 -2 -35 0 -33 4 2 3 -3 13
-11 22 -13 13 -19 13 -30 3 -7 -6 -11 -15 -8 -19 2 -4 -10 0 -26 10 -17 9 -31
20 -31 25 0 16 -30 6 -41 -14 -9 -18 -17 -20 -47 -15 -21 4 -59 8 -87 11 -27
2 -61 6 -75 9 -14 2 -30 5 -37 5 -6 1 -15 10 -18 21 -10 30 -29 25 -94 -26
-68 -52 -113 -64 -143 -38 -11 10 -19 14 -18 9 8 -40 -3 -86 -29 -119 -47 -59
-48 -94 -5 -197 27 -66 42 -89 55 -89 13 0 21 -12 29 -40 8 -29 17 -41 35 -46
25 -6 30 -14 41 -77 3 -21 16 -45 30 -56 20 -15 29 -17 58 -7 20 6 38 16 41
23 7 21 -6 43 -26 43 -17 0 -19 8 -18 73 1 39 4 83 8 97 l7 25 12 -22 c7 -12
12 -44 12 -72 0 -47 2 -52 33 -68 17 -10 41 -18 52 -18 29 0 33 -41 11 -105
-12 -34 -17 -64 -12 -76 7 -18 8 -18 26 4 11 13 27 49 36 80 17 58 23 75 43
126 9 22 15 26 23 18 9 -9 8 -18 0 -37 -7 -14 -12 -50 -12 -80 0 -30 -4 -57
-10 -60 -5 -3 -10 -18 -10 -32 0 -25 1 -25 25 -9 35 23 42 20 49 -19 9 -46 40
-48 64 -4 14 24 22 29 45 26 19 -2 27 1 27 12 0 9 9 29 19 45 l19 29 7 -37 c6
-28 4 -40 -9 -49 -16 -12 -26 -110 -13 -124 8 -7 60 -7 85 1 9 3 25 24 34 47
17 41 40 49 46 15 2 -10 -17 -59 -42 -110 -25 -51 -46 -96 -46 -102 0 -5 21
-8 48 -6 33 3 52 10 63 24 19 25 49 18 49 -11 0 -31 29 -54 62 -47 40 8 36
-11 -12 -51 -22 -19 -40 -39 -40 -45 0 -7 -7 -20 -17 -30 -21 -23 -10 -36 12
-14 20 19 27 20 43 4 24 -24 14 -57 -23 -72 -37 -16 -41 -26 -25 -57 10 -18
13 -18 41 -4 34 18 57 11 38 -12 -15 -17 2 -32 36 -33 40 -1 65 -12 65 -31 0
-22 20 -36 29 -21 10 16 53 2 47 -14 -20 -49 -23 -46 39 -48 19 -1 30 -6 30
-16 0 -17 -34 -28 -98 -29 -26 -1 -58 -8 -71 -16 -12 -8 -43 -18 -67 -21 -24
-3 -68 -9 -98 -13 -30 -5 -61 -6 -70 -4 -10 2 -41 -5 -69 -16 -29 -12 -63 -21
-75 -21 -12 0 -35 -7 -52 -16 -16 -9 -62 -26 -102 -39 -90 -30 -122 -47 -150
-79 -13 -14 -29 -26 -36 -26 -7 0 -31 -18 -52 -40 -42 -43 -55 -49 -55 -25 0
18 -24 20 -38 3 -5 -7 -13 -28 -17 -45 -3 -18 -10 -33 -14 -33 -4 0 -15 -18
-25 -40 -9 -22 -27 -48 -39 -57 -12 -10 -36 -49 -53 -88 -41 -91 -46 -104 -50
-140 -11 -95 -16 -115 -29 -115 -44 0 -59 -100 -24 -157 17 -28 19 -39 11 -58
-9 -19 -7 -26 11 -43 29 -28 40 -42 54 -74 7 -16 17 -28 23 -28 5 0 10 -14 10
-30 0 -46 42 -84 82 -76 42 8 55 21 62 61 4 19 9 35 13 35 3 0 31 -16 63 -35
32 -19 67 -35 79 -35 12 0 38 -7 58 -15 19 -8 53 -15 74 -15 21 0 64 -7 96
-16 77 -22 291 -36 428 -29 190 11 314 63 442 188 29 27 52 41 70 42 20 0 27
5 25 17 -1 10 7 18 24 22 29 8 54 -8 54 -33 0 -9 9 -29 19 -45 11 -16 17 -35
14 -42 -3 -8 1 -16 9 -19 13 -5 12 -12 -5 -47 -11 -22 -29 -43 -39 -46 -13 -3
-18 -14 -18 -42 0 -30 -5 -40 -20 -45 -24 -8 -26 -28 -4 -49 18 -18 40 -21 49
-6 10 16 61 11 77 -7 9 -10 18 -27 19 -38 2 -11 18 -27 34 -35 57 -29 58 -30
39 -51 -9 -10 -23 -19 -31 -19 -7 0 -13 -4 -13 -10 0 -13 4 -13 46 5 27 11 41
12 56 4 11 -6 32 -9 47 -6 30 6 121 -12 121 -25 0 -4 -26 -9 -57 -9 -32 -1
-71 -4 -87 -8 -28 -6 -28 -6 -8 -24 15 -14 40 -19 103 -21 75 -3 84 -6 101
-29 16 -22 21 -24 47 -14 17 6 32 19 34 29 3 11 14 18 30 18 13 0 32 9 42 20
25 27 67 25 104 -6 21 -18 31 -35 31 -55 0 -18 7 -32 20 -39 11 -6 20 -21 20
-34 0 -13 7 -29 15 -36 8 -7 15 -19 15 -27 0 -8 9 -26 20 -40 11 -14 23 -43
26 -64 4 -21 12 -43 19 -49 9 -7 11 -25 8 -50 -6 -46 8 -70 41 -70 43 0 103
-38 129 -82 14 -24 47 -65 72 -93 25 -27 64 -74 87 -104 22 -29 53 -61 69 -70
16 -9 29 -21 29 -28 0 -6 23 -14 50 -18 44 -6 56 -4 88 18 24 15 42 38 51 63
8 21 22 50 33 63 10 13 16 31 13 40 -2 9 4 30 15 46 23 34 25 57 8 84 -17 27
-4 49 42 67 42 17 53 47 28 72 -17 17 -37 161 -27 189 6 17 2 30 -19 54 -23
28 -27 42 -28 103 -2 106 -14 179 -34 201 -10 11 -20 34 -23 50 -2 17 -14 46
-26 65 -11 19 -21 44 -21 55 0 11 -6 29 -14 40 -7 11 -16 32 -20 47 -3 14 -17
40 -31 56 -13 16 -35 63 -48 105 -21 65 -23 79 -11 94 7 10 14 29 14 41 0 57
113 112 160 79 17 -12 28 -13 57 -4 20 6 38 18 40 27 7 23 82 71 117 74 l31 3
3 766 c2 612 0 765 -10 761 -18 -6 -83 -120 -98 -169 -7 -22 -28 -70 -47 -107
-34 -66 -35 -69 -32 -170 2 -57 0 -109 -4 -115 -4 -7 -1 -33 8 -58 17 -51 21
-219 6 -257 -5 -13 -17 -50 -27 -83 -32 -109 -57 -175 -65 -175 -5 0 -9 -4 -9
-10 0 -17 -68 -100 -148 -182 -70 -71 -78 -83 -83 -128 -9 -68 -15 -80 -39
-80 -13 0 -20 -7 -20 -20 0 -11 -7 -20 -15 -20 -20 0 -19 20 1 49 16 22 15 24
-12 48 -36 31 -55 39 -121 48 -47 6 -53 10 -53 30 0 17 -10 27 -39 38 -50 20
-53 27 -55 101 -1 59 -2 62 -33 75 -37 17 -43 31 -12 31 34 0 49 24 49 78 0
34 5 52 14 55 10 4 13 1 9 -9 -3 -7 0 -14 6 -14 11 0 14 9 14 43 0 9 4 17 9
17 5 0 6 5 3 11 -10 15 4 79 16 79 6 0 8 -4 4 -9 -3 -5 -1 -12 4 -16 6 -3 8 6
5 21 -3 14 1 33 8 42 10 12 10 14 1 8 -8 -4 -13 -2 -13 4 0 6 -5 8 -12 4 -7
-4 -8 -3 -4 5 4 6 12 9 17 6 5 -4 9 -1 9 4 0 11 -5 13 -55 15 -16 0 -34 7 -38
14 -4 7 -19 10 -33 8 -13 -3 -24 0 -24 5 0 6 -5 7 -10 4 -12 -7 -8 31 5 42 4
5 5 3 1 -4 -3 -6 -1 -15 5 -19 7 -4 9 -3 5 4 -3 5 -2 12 4 14 6 2 1 9 -11 16
-17 11 -20 11 -14 0 6 -10 5 -10 -4 -2 -7 6 -16 37 -20 68 -4 31 -5 54 -3 51
3 -3 10 2 16 10 6 8 24 16 40 18 18 2 32 11 37 24 7 20 -3 47 -18 49 -4 0 -16
4 -26 8 -9 5 -26 6 -37 3 -13 -3 -21 1 -27 17 -4 11 -6 25 -5 29 1 5 -2 6 -8
2 -6 -3 -8 -10 -5 -14 2 -5 -14 -5 -37 -1 -23 5 -51 6 -63 4 -19 -3 -21 1 -20
34 1 39 -19 73 -29 49 -3 -8 -9 -6 -20 7 -24 29 -20 56 7 56 16 0 18 3 8 9
-10 6 -5 13 19 25 18 9 41 16 52 16 12 0 18 7 18 23 0 21 7 25 63 36 96 20
127 21 127 4 0 -9 -5 -11 -12 -6 -7 4 -22 9 -33 10 -19 3 -19 2 -2 -8 18 -10
18 -11 0 -25 -17 -14 -17 -15 2 -6 11 5 28 8 37 7 10 -2 21 1 24 7 4 6 10 5
15 -3 7 -11 9 -11 9 1 0 13 1 13 10 0 8 -12 10 -12 10 -1 0 10 3 11 14 2 10
-8 16 -9 21 -1 3 5 3 10 -1 10 -3 0 0 8 7 18 13 15 12 16 -3 3 -15 -11 -18
-11 -18 0 0 8 -6 6 -16 -7 -15 -19 -16 -19 -10 1 l6 20 -16 -20 c-16 -20 -16
-20 -11 3 3 12 1 20 -4 16 -5 -3 -9 -13 -10 -22 0 -11 -4 -9 -10 8 -7 16 -7
26 0 28 6 2 2 19 -9 40 -17 31 -18 38 -5 42 10 3 11 9 5 20 -5 8 -10 11 -10 6
0 -5 -7 -3 -15 4 -13 11 -14 10 -9 -5 5 -12 4 -16 -3 -12 -6 4 -16 0 -23 -8
-10 -12 -10 -15 3 -15 8 0 17 -7 21 -15 5 -13 2 -14 -17 -4 -12 7 -24 10 -27
8 -3 -2 -6 28 -8 67 l-3 72 -32 -8 c-18 -4 -45 -13 -60 -19 -16 -6 -46 -11
-68 -11 -33 0 -39 3 -39 20 0 23 10 28 58 33 39 4 51 14 28 23 -9 3 -16 10
-16 16 0 5 5 6 10 3 17 -10 11 12 -7 26 -11 9 -14 10 -9 2 5 -10 -4 -12 -34
-11 -22 1 -43 5 -46 9 -4 7 -23 6 -49 -2 -12 -4 -75 32 -75 43 0 4 7 8 15 8 8
0 15 -6 15 -14 0 -10 14 -14 48 -14 44 -1 49 2 59 28 12 33 4 39 -56 46 -19 2
-38 7 -42 11 -12 12 -15 97 -4 98 18 1 41 20 48 38 8 20 34 17 29 -2 -1 -7 2
-10 8 -6 6 4 16 3 23 -2 44 -33 280 -55 291 -26 3 7 15 13 27 13 17 0 19 -3
10 -14 -9 -11 -6 -12 19 -7 17 3 31 10 31 15 0 11 1 11 -111 21 -47 4 -103 13
-125 21 -22 7 -49 11 -61 8 -12 -3 -36 2 -54 11 -18 9 -35 13 -39 8 -3 -4 -22
-9 -41 -10 -29 -1 -84 -7 -122 -12 -5 -1 -8 -8 -8 -16 0 -18 -17 -20 -23 -2
-3 9 -9 9 -25 0 -18 -11 -27 -9 -59 9 -49 28 -75 59 -62 75 6 6 9 17 8 25 -2
7 0 25 4 39 6 22 16 29 59 40 29 7 67 12 85 12 25 -1 31 2 30 17 -1 14 -16 25
-49 37 -55 20 -66 50 -20 55 21 2 27 9 29 28 1 14 -1 17 -3 8 -3 -10 -11 -15
-20 -11 -8 3 -22 -1 -31 -8 -9 -8 -14 -9 -11 -3 4 5 -9 18 -28 29 -19 10 -34
23 -34 29 0 6 -5 4 -10 -4 -6 -10 -10 -11 -10 -2 0 6 -7 12 -15 12 -8 0 -15 7
-15 16 0 8 -4 13 -9 9 -5 -3 -13 0 -17 6 -10 17 81 99 111 99 14 0 25 4 25 9
0 5 14 11 30 15 38 7 40 37 5 56 -17 9 -25 21 -23 34 2 16 12 21 48 24 25 2
59 5 75 7 17 1 35 3 41 4 7 1 14 9 17 20 3 13 12 18 31 16 14 -2 26 1 26 6 0
6 5 7 12 3 6 -4 8 -3 4 4 -3 6 1 15 10 20 20 11 10 32 -16 32 -14 0 -18 7 -16
33 1 25 -3 33 -17 34 -10 1 -15 -3 -11 -10 3 -7 -1 -4 -9 6 -14 17 -18 17 -39
4 -14 -8 -34 -11 -53 -8 l-30 7 30 19 c17 11 36 25 43 33 8 7 33 21 57 32 24
11 48 26 52 33 9 13 37 32 69 46 30 13 37 39 19 73 -12 26 -13 33 -1 50 10 14
12 29 6 48 -7 26 -5 30 21 39 26 9 29 14 29 55 0 26 5 47 10 47 6 1 15 2 20 3
6 0 17 14 26 31 8 16 12 26 8 22 -4 -4 -12 -2 -19 3 -8 7 -27 -1 -61 -25z
m-314 -531 c0 -24 -24 -44 -50 -42 l-30 2 22 23 c19 21 58 32 58 17z m-110
-194 c0 -5 -6 -10 -14 -10 -8 0 -18 5 -21 10 -3 6 3 10 14 10 12 0 21 -4 21
-10z m-140 -200 c0 -5 -4 -10 -10 -10 -5 0 -10 5 -10 10 0 6 5 10 10 10 6 0
10 -4 10 -10z m-1523 -72 c-3 -8 -6 -5 -6 6 -1 11 2 17 5 13 3 -3 4 -12 1 -19z
m288 -145 c-9 -89 -49 -223 -67 -223 -18 0 2 91 33 152 5 10 9 36 9 59 0 38
14 79 27 79 3 0 2 -30 -2 -67z m-306 -46 c0 -18 -4 -41 -8 -52 -7 -18 -8 -17
-14 7 -8 32 2 90 14 82 5 -3 9 -20 8 -37z m1838 -190 c13 -8 7 -37 -9 -37 -5
0 -6 6 -2 13 6 10 4 10 -7 0 -20 -19 -27 -16 -22 11 5 24 17 28 40 13z m-1707
-22 c9 -11 10 -19 2 -27 -14 -14 -32 -1 -32 23 0 23 13 25 30 4z m1825 -445
c0 -9 -11 -16 -27 -18 -27 -3 -38 14 -21 32 12 12 48 2 48 -14z m-81 -59 c7
-11 -22 -23 -35 -15 -5 3 -9 9 -9 15 0 12 37 12 44 0z m-1044 -120 c0 -19 -32
-41 -61 -41 -23 0 -30 4 -27 17 4 23 88 46 88 24z m174 -502 c-7 -12 -44 -12
-44 0 0 5 6 11 13 14 17 6 38 -3 31 -14z m1207 -86 c12 -15 12 -16 -1 -8 -13
7 -13 6 -2 -7 10 -13 10 -17 -4 -22 -9 -3 -19 -4 -24 -1 -4 3 -10 -2 -14 -10
-6 -16 -36 -21 -36 -5 0 5 6 7 14 4 9 -4 18 6 26 30 13 40 21 44 41 19z
m-1620 -489 c9 -11 10 -20 2 -32 -13 -22 -43 -22 -56 -1 -24 38 25 68 54 33z
m408 -25 c21 -8 33 -19 37 -37 3 -15 12 -48 20 -74 22 -75 29 -165 14 -193
-12 -23 -14 -23 -26 -7 -9 13 -9 19 -1 24 9 6 9 8 0 8 -6 0 -15 -4 -18 -10
-18 -29 -26 -4 -26 73 2 125 -3 164 -22 185 -15 16 -23 42 -13 42 1 0 17 -5
35 -11z m-785 -165 c21 -21 20 -40 -4 -64 -24 -24 -75 -27 -84 -4 -13 35 -6
54 27 68 42 19 43 19 61 0z m-446 -35 c-3 -8 -7 -3 -11 10 -4 17 -3 21 5 13 5
-5 8 -16 6 -23z m1262 -176 c0 -7 -4 -13 -10 -13 -5 0 -10 12 -10 28 0 21 2
24 10 12 5 -8 10 -21 10 -27z m-50 -107 c0 -17 -58 -61 -68 -52 -3 4 -2 10 4
14 6 4 16 17 23 30 13 24 41 30 41 8z m425 -206 c3 -5 -1 -10 -9 -10 -9 0 -16
5 -16 10 0 6 4 10 9 10 6 0 13 -4 16 -10z m189 -59 c3 -4 3 -11 0 -14 -8 -8
-34 3 -34 14 0 11 27 12 34 0z"/>
<path d="M1237 7763 c-24 -24 60 -45 93 -23 13 9 13 11 0 20 -17 11 -83 13
-93 3z"/>
<path d="M7510 7635 c5 -7 8 -14 5 -17 -3 -3 3 -11 12 -19 16 -12 17 -12 7 1
-6 8 -10 22 -9 31 2 9 -3 16 -11 16 -9 0 -11 -4 -4 -12z"/>
<path d="M7543 7632 c2 -12 9 -28 17 -35 10 -10 11 -9 4 3 -5 8 -9 21 -10 28
-2 8 -5 17 -8 20 -4 3 -5 -4 -3 -16z"/>
<path d="M7323 7613 c-7 -3 -13 -12 -13 -21 0 -15 2 -15 17 1 18 18 16 27 -4
20z"/>
<path d="M1340 7520 c0 -5 5 -10 11 -10 5 0 7 5 4 10 -3 6 -8 10 -11 10 -2 0
-4 -4 -4 -10z"/>
<path d="M7513 7425 c0 -8 4 -12 9 -9 5 3 6 10 3 15 -9 13 -12 11 -12 -6z"/>
<path d="M7473 7403 c0 -9 4 -10 14 -2 7 6 13 12 13 14 0 1 -6 2 -13 2 -8 0
-14 -6 -14 -14z"/>
<path d="M7496 7383 c-6 -14 -5 -15 5 -6 7 7 10 15 7 18 -3 3 -9 -2 -12 -12z"/>
<path d="M7475 7350 c3 -5 8 -10 11 -10 2 0 4 5 4 10 0 6 -5 10 -11 10 -5 0
-7 -4 -4 -10z"/>
<path d="M7525 7351 c-3 -5 -1 -12 5 -16 6 -4 8 -10 5 -15 -3 -5 -1 -11 4 -14
8 -5 8 15 1 34 -1 3 -2 8 -1 13 1 10 -7 9 -14 -2z"/>
<path d="M6872 7338 c6 -16 108 -18 108 -3 0 6 -25 11 -56 13 -43 2 -55 0 -52
-10z"/>
<path d="M6824 7332 c-17 -11 -25 -42 -11 -42 12 0 47 34 47 45 0 8 -24 6 -36
-3z"/>
<path d="M7476 7318 c3 -4 9 -8 15 -8 5 0 9 4 9 8 0 5 -7 9 -15 9 -8 0 -12 -4
-9 -9z"/>
<path d="M1540 7230 c0 -5 7 -10 16 -10 8 0 12 5 9 10 -3 6 -10 10 -16 10 -5
0 -9 -4 -9 -10z"/>
<path d="M7911 7223 c-1 -13 5 -23 13 -23 18 0 29 27 14 36 -7 4 -8 3 -4 -4 4
-7 3 -12 -3 -12 -5 0 -12 6 -14 13 -3 6 -6 2 -6 -10z"/>
<path d="M7874 7213 c-4 -10 -6 -22 -5 -26 1 -5 -3 -6 -9 -2 -6 3 -8 11 -5 16
4 5 2 9 -4 9 -22 0 -19 -19 5 -35 22 -14 24 -19 12 -33 -12 -15 -11 -16 5 -3
9 8 15 16 12 19 -3 3 1 12 8 20 9 13 9 14 0 8 -17 -9 -17 16 -1 32 8 8 8 12 1
12 -6 0 -14 -8 -19 -17z"/>
<path d="M6995 7187 c-13 -28 -8 -57 11 -57 8 0 12 -4 9 -10 -3 -5 0 -7 8 -5
9 4 12 17 8 47 -7 48 -21 58 -36 25z"/>
<path d="M7213 7184 c-7 -19 13 -34 47 -34 14 0 43 -9 64 -21 21 -11 45 -18
54 -16 15 4 15 5 0 6 -11 1 -18 9 -18 22 0 11 -4 17 -10 14 -5 -3 -10 -1 -10
4 0 14 -65 41 -97 41 -13 0 -26 -7 -30 -16z"/>
<path d="M1680 7161 c0 -5 7 -15 17 -22 15 -13 15 -12 4 9 -12 23 -21 28 -21
13z"/>
<path d="M1792 7099 c2 -24 8 -43 13 -41 15 3 12 75 -3 80 -10 3 -12 -7 -10
-39z"/>
<path d="M1704 7112 c9 -14 58 -22 53 -8 -2 6 -16 12 -31 14 -16 2 -26 -1 -22
-6z"/>
<path d="M1126 7041 c-11 -16 19 -30 72 -32 29 -2 52 -6 52 -11 0 -4 6 -8 13
-8 6 0 -4 14 -23 30 -35 29 -102 42 -114 21z"/>
<path d="M1830 7037 c0 -10 8 -17 18 -17 9 0 13 4 7 8 -5 4 -13 11 -17 16 -5
5 -8 2 -8 -7z"/>
<path d="M1970 6970 c0 -5 5 -10 10 -10 6 0 10 5 10 10 0 6 -4 10 -10 10 -5 0
-10 -4 -10 -10z"/>
<path d="M1060 6921 c0 -5 5 -13 10 -16 6 -3 10 -2 10 4 0 5 -4 13 -10 16 -5
3 -10 2 -10 -4z"/>
<path d="M1055 6880 c-3 -6 1 -7 9 -4 18 7 21 14 7 14 -6 0 -13 -4 -16 -10z"/>
<path d="M6650 6800 c0 -5 5 -10 11 -10 5 0 7 5 4 10 -3 6 -8 10 -11 10 -2 0
-4 -4 -4 -10z"/>
<path d="M7220 6673 c0 -16 6 -23 20 -23 11 0 23 -7 26 -15 4 -8 9 -13 13 -11
4 3 13 1 21 -5 12 -7 11 -9 -6 -9 -12 0 -27 7 -34 15 -7 8 -25 15 -41 15 -43
0 -39 -35 6 -54 19 -8 56 -30 82 -48 34 -23 60 -33 90 -34 24 -1 40 3 37 8 -3
5 6 6 22 2 19 -5 25 -4 20 4 -5 8 -1 10 9 5 13 -4 14 -8 4 -14 -11 -6 -10 -9
4 -15 9 -3 14 -11 10 -18 -4 -8 -3 -8 6 0 6 6 14 22 16 37 4 22 1 26 -25 32
-19 4 -30 13 -30 24 0 11 -9 17 -25 19 -19 1 -25 -3 -25 -18 0 -20 -11 -26
-24 -13 -3 4 -14 8 -23 9 -77 12 -84 40 -10 38 31 -1 47 2 47 10 0 19 -22 36
-48 36 -13 0 -36 8 -50 19 -15 10 -42 20 -59 23 -29 4 -33 2 -33 -19z"/>
<path d="M461 6394 c0 -11 3 -14 6 -6 3 7 2 16 -1 19 -3 4 -6 -2 -5 -13z"/>
<path d="M7223 6375 c0 -8 4 -12 9 -9 5 3 6 10 3 15 -9 13 -12 11 -12 -6z"/>
<path d="M7245 6360 c-3 -5 2 -15 10 -23 11 -12 12 -17 2 -20 -6 -3 -3 -6 8
-7 17 -2 16 -3 -5 -10 -23 -7 -21 -8 12 -9 20 -1 38 3 40 8 2 6 14 11 28 13
14 2 30 6 35 10 6 4 12 -2 12 -13 1 -11 -2 -17 -6 -15 -4 3 -8 -1 -8 -9 0 -21
27 2 28 24 0 10 4 8 10 -7 5 -13 6 -29 2 -34 -3 -7 -1 -8 5 -4 7 4 12 3 12 -2
0 -5 10 -8 23 -7 13 2 20 8 18 16 -2 8 -3 24 -3 37 2 23 -33 46 -53 34 -20
-12 -90 -10 -105 2 -20 17 -59 26 -65 16z"/>
<path d="M1918 6299 c-21 -12 -23 -40 -5 -58 6 -6 12 -29 12 -49 0 -34 3 -37
30 -40 17 -2 34 -10 38 -18 12 -20 27 -17 27 6 0 11 -4 20 -9 20 -8 0 -41 76
-56 128 -7 24 -12 26 -37 11z"/>
<path d="M7341 6283 c6 -7 10 -13 8 -14 -32 -6 -39 -5 -39 4 0 7 -4 6 -9 -2
-5 -8 -7 -20 -4 -28 4 -11 8 -10 19 4 11 15 13 15 14 3 0 -11 4 -9 12 5 17 29
18 42 2 42 -10 0 -11 -4 -3 -14z"/>
<path d="M618 6247 c-28 -11 -38 -27 -18 -27 6 0 20 -9 32 -20 22 -20 47 -27
49 -12 0 4 2 16 4 27 4 22 -11 46 -29 44 -6 -1 -23 -6 -38 -12z"/>
<path d="M1058 6222 c-23 -5 -23 -8 5 -42 12 -16 30 -40 40 -54 17 -25 57 -36
57 -17 0 13 -63 109 -75 113 -5 3 -18 3 -27 0z"/>
<path d="M740 6170 c0 -6 -4 -8 -10 -5 -6 4 -10 -8 -10 -28 0 -46 32 -64 84
-47 52 17 48 60 -6 73 -14 4 -33 10 -42 13 -9 3 -16 1 -16 -6z"/>
<path d="M1760 6136 c0 -30 13 -46 36 -46 28 0 28 1 12 35 -12 26 -48 35 -48
11z"/>
<path d="M7206 6143 c-8 -8 -8 -57 0 -77 3 -9 15 -16 26 -16 11 0 31 -9 45
-20 29 -23 54 -25 71 -8 9 9 12 9 12 0 0 -7 -5 -12 -11 -12 -5 0 -7 -5 -3 -12
4 -7 3 -8 -4 -4 -16 10 -15 -9 1 -23 15 -11 16 -9 20 47 1 15 6 33 11 40 5 9
3 13 -5 11 -24 -4 -69 13 -82 31 -15 21 -72 52 -81 43z"/>
<path d="M5007 6079 c-17 -10 -24 -49 -9 -49 9 0 35 50 30 56 -2 1 -11 -2 -21
-7z"/>
<path d="M1575 6070 c-10 -16 7 -31 23 -21 10 6 10 10 -2 20 -10 9 -16 9 -21
1z"/>
<path d="M1702 6058 c5 -15 48 -24 48 -10 0 10 -23 22 -42 22 -5 0 -8 -6 -6
-12z"/>
<path d="M7073 6055 c0 -8 4 -12 9 -9 5 3 6 10 3 15 -9 13 -12 11 -12 -6z"/>
<path d="M5222 6026 c-12 -42 -9 -57 9 -39 6 6 9 26 7 44 l-4 34 -12 -39z"/>
<path d="M1640 6005 c0 -8 10 -20 23 -26 12 -7 27 -19 34 -28 8 -12 15 -13 23
-5 8 8 4 15 -14 28 -15 9 -26 23 -26 31 0 8 -9 15 -20 15 -11 0 -20 -7 -20
-15z"/>
<path d="M5291 5991 c-18 -33 -13 -51 14 -51 20 0 25 5 25 24 0 13 -6 29 -14
35 -12 10 -17 8 -25 -8z"/>
<path d="M1567 5953 c-3 -3 -2 -13 3 -22 5 -9 11 -24 14 -33 5 -18 126 -78
157 -78 11 0 19 6 19 13 0 16 -84 70 -133 86 -20 7 -35 16 -32 21 6 9 -20 21
-28 13z"/>
<path d="M1515 5890 c-8 -14 13 -40 40 -50 30 -12 37 -2 20 31 -15 29 -48 39
-60 19z"/>
<path d="M5474 5845 c-3 -8 -3 -19 1 -25 9 -14 35 6 35 26 0 19 -29 18 -36 -1z"/>
<path d="M6958 5853 c6 -2 9 -10 6 -15 -4 -7 -2 -8 4 -4 6 3 15 -2 21 -11 6
-10 11 -13 11 -7 0 13 -33 44 -46 43 -5 0 -3 -3 4 -6z"/>
<path d="M7011 5784 c0 -11 3 -14 6 -6 3 7 2 16 -1 19 -3 4 -6 -2 -5 -13z"/>
<path d="M6887 5783 c-4 -3 -1 -13 6 -21 6 -8 12 -25 12 -36 0 -12 4 -21 10
-21 12 0 15 34 3 41 -5 3 -4 12 2 19 8 9 8 15 0 20 -6 4 -9 3 -8 -2 2 -4 -1
-9 -7 -10 -5 -2 -9 2 -7 7 2 12 -2 13 -11 3z"/>
<path d="M6943 5783 c4 -3 1 -13 -6 -22 -11 -14 -10 -14 5 -2 16 12 16 31 1
31 -4 0 -3 -3 0 -7z"/>
<path d="M1255 5758 c-21 -11 -45 -37 -45 -49 0 -4 17 -10 38 -14 20 -4 49
-14 64 -23 26 -15 29 -15 46 3 18 20 18 20 -12 30 -17 6 -32 17 -32 25 -1 8
-2 21 -3 28 -1 15 -29 15 -56 0z"/>
<path d="M6873 5745 c0 -8 4 -12 9 -9 5 3 6 10 3 15 -9 13 -12 11 -12 -6z"/>
<path d="M1853 5665 c-18 -8 -33 -19 -33 -26 0 -7 -9 -5 -26 6 -15 9 -24 12
-20 7 6 -10 -30 -28 -46 -24 -5 1 -8 -2 -8 -8 0 -5 -20 -10 -44 -10 -26 0 -48
-6 -56 -14 -6 -8 -24 -16 -38 -18 -15 -2 -26 -8 -25 -14 1 -7 -17 -19 -40 -27
-49 -19 -117 -18 -117 1 0 7 -11 17 -24 22 -13 5 -27 14 -31 19 -10 17 -38 12
-68 -13 -24 -19 -37 -22 -73 -18 -24 2 -44 2 -44 -1 0 -2 7 -18 15 -33 24 -46
19 -52 -44 -59 -39 -4 -65 -13 -77 -26 -19 -22 -19 -22 62 -19 57 2 76 -13 51
-38 -14 -13 -21 -14 -43 -3 -22 10 -31 9 -51 -4 -36 -24 -23 -40 35 -43 61 -4
78 -23 65 -75 -5 -17 -7 -42 -5 -55 3 -20 7 -22 38 -16 40 7 47 -11 14 -41
-12 -11 -20 -31 -20 -50 0 -18 -9 -44 -20 -58 -15 -19 -20 -40 -20 -91 0 -37
4 -74 9 -84 28 -55 36 -77 33 -94 -3 -14 2 -18 14 -16 13 2 21 -8 30 -37 24
-80 157 -194 252 -216 26 -6 71 -22 100 -35 29 -13 63 -24 75 -24 13 0 66 -9
118 -21 107 -23 336 -28 385 -8 16 7 44 18 62 26 39 17 62 5 62 -32 0 -21 21
-37 68 -50 36 -10 130 48 140 88 6 22 15 33 30 35 18 3 22 10 22 43 0 24 7 47
16 56 12 12 14 27 10 57 -10 66 -10 67 8 153 30 143 9 358 -39 383 -17 9 -24
23 -27 61 -4 35 -13 58 -37 86 -34 40 -77 91 -137 161 -21 24 -55 52 -75 63
-21 10 -44 27 -51 38 -8 11 -32 23 -53 27 -22 4 -51 15 -64 25 -13 11 -32 19
-42 19 -11 0 -19 5 -19 11 0 8 -5 8 -15 -1 -13 -11 -19 -9 -34 9 -22 25 -97
29 -148 6z m157 -125 c11 -7 5 -10 -22 -10 -21 0 -38 5 -38 10 0 13 40 13 60
0z m-713 -16 c14 -13 14 -17 2 -25 -19 -12 -31 -7 -40 19 -10 27 14 31 38 6z
m78 -14 c0 -22 -29 -18 -33 3 -3 14 1 18 15 15 10 -2 18 -10 18 -18z m783 -7
c-4 -22 -48 -31 -48 -10 0 19 10 27 32 27 13 0 18 -6 16 -17z m-938 -157 c0
-8 -4 -18 -10 -21 -5 -3 -10 3 -10 14 0 12 5 21 10 21 6 0 10 -6 10 -14z m898
-285 c21 -13 10 -46 -17 -49 -29 -4 -43 15 -30 40 11 20 26 23 47 9z m-764
-106 c-4 -16 -10 -35 -15 -41 -5 -7 -12 -42 -16 -78 -3 -37 -8 -64 -11 -61
-11 10 -12 62 -2 105 6 25 11 59 12 75 1 17 6 36 11 43 16 20 28 -7 21 -43z
m396 -90 c6 -8 9 -22 6 -32 -8 -24 -58 -43 -80 -31 -19 11 -21 49 -4 66 17 17
63 15 78 -3z m-389 -115 c12 0 11 -21 0 -39 -8 -12 -12 -12 -25 -2 -22 18 -22
55 0 47 9 -3 20 -6 25 -6z m1021 -82 c-3 -12 -7 -17 -10 -10 -2 6 -10 12 -18
12 -9 0 -12 5 -9 10 3 6 14 10 25 10 14 0 17 -5 12 -22z"/>
<path d="M7418 5626 c3 -13 1 -17 -6 -12 -8 5 -10 1 -5 -11 6 -15 8 -13 18 10
8 19 14 24 21 17 7 -7 11 -6 11 4 0 10 -9 15 -22 14 -17 -2 -21 -7 -17 -22z"/>
<path d="M7700 5513 c0 -15 3 -23 7 -20 3 4 13 1 21 -6 13 -10 14 -9 7 2 -6
11 -4 13 8 8 10 -3 17 -2 17 3 0 5 7 7 15 4 8 -4 15 -2 15 3 0 5 -6 10 -12 10
-7 1 -28 6 -45 11 -31 10 -33 9 -33 -15z"/>
<path d="M7056 5468 c-6 -28 -4 -60 2 -53 5 5 11 75 6 75 -2 0 -6 -10 -8 -22z"/>
<path d="M970 5420 c0 -19 11 -26 23 -14 8 8 -3 34 -14 34 -5 0 -9 -9 -9 -20z"/>
<path d="M2820 3693 c8 -12 19 -19 25 -17 5 3 1 -2 -9 -10 -25 -20 -34 -20
-38 2 -3 14 -5 13 -10 -6 -3 -12 -3 -20 1 -18 4 3 13 0 21 -5 11 -7 8 -8 -10
-5 -20 2 -24 8 -22 27 4 27 0 25 -18 -10 -8 -15 -8 -21 -1 -17 6 4 14 1 17 -8
3 -8 14 -13 25 -11 10 2 19 -1 19 -6 0 -6 4 -8 9 -4 6 3 8 15 6 26 -4 17 -2
19 11 8 13 -10 12 -15 -8 -38 -38 -43 -41 -47 -34 -34 4 7 2 21 -4 30 -10 16
-11 16 -6 1 2 -9 -3 -22 -12 -29 -9 -8 -14 -9 -9 -4 4 4 -2 18 -12 29 -11 12
-21 26 -23 31 -2 6 -7 9 -11 7 -5 -1 -6 2 -2 8 3 6 12 7 18 4 7 -4 9 -4 5 1
-4 4 -2 15 4 24 10 13 10 14 -2 4 -21 -19 -34 -16 -19 5 13 16 12 16 -6 1 -11
-9 -28 -15 -37 -14 -10 2 -16 -2 -15 -8 1 -7 -4 -11 -11 -9 -8 1 -11 -2 -8 -7
8 -12 42 -7 39 6 -1 5 5 10 12 10 10 0 12 -4 5 -12 -5 -7 -6 -16 -2 -20 4 -5
1 -5 -5 -1 -7 4 -13 2 -13 -4 0 -6 -12 -5 -30 5 -17 9 -28 20 -25 25 4 6 -1 7
-11 3 -12 -4 -15 -3 -10 5 11 18 0 14 -20 -5 -10 -10 -21 -19 -26 -19 -4 -1
-10 -3 -13 -4 -14 -7 -31 -5 -44 4 -11 8 -13 8 -7 -1 9 -16 -26 -18 -53 -4 -9
6 -23 6 -31 1 -22 -13 -21 -42 1 -47 12 -3 18 -11 15 -19 -3 -8 -2 -13 2 -13
21 3 32 -3 32 -18 0 -9 3 -13 6 -10 4 4 15 -3 26 -15 13 -15 15 -24 7 -29 -18
-11 0 -31 22 -24 15 5 19 1 20 -17 0 -13 3 -17 6 -10 2 6 11 12 19 12 9 0 12
-4 9 -10 -3 -5 0 -7 9 -4 16 6 64 -21 84 -48 7 -10 19 -18 26 -18 6 0 18 -16
24 -34 13 -34 42 -53 62 -41 5 3 10 -1 10 -11 0 -9 9 -32 21 -51 18 -29 23
-32 37 -21 9 8 13 8 9 2 -4 -7 0 -15 9 -18 9 -3 14 -12 11 -20 -3 -7 0 -19 6
-25 6 -6 7 -11 2 -11 -5 0 0 -7 11 -16 10 -8 12 -12 4 -8 -12 6 -13 4 -2 -7
14 -16 16 -33 2 -24 -5 3 -11 1 -11 -4 -1 -6 -2 -17 -3 -23 -1 -7 4 -19 11
-26 14 -15 18 -36 5 -28 -5 3 -9 -1 -9 -9 0 -8 5 -13 11 -12 6 1 11 -8 10 -20
0 -17 3 -20 12 -12 9 8 11 5 7 -10 -3 -12 -9 -18 -14 -15 -5 3 -6 -2 -2 -12 5
-14 8 -13 20 7 14 24 14 24 8 -6 -4 -22 -3 -26 5 -15 5 8 10 11 10 5 0 -5 9 1
20 15 17 23 19 23 14 4 -3 -12 -1 -25 5 -28 6 -4 9 -1 5 7 -3 10 2 14 18 13
13 0 23 -6 23 -13 0 -7 6 -18 13 -24 10 -11 12 -10 12 0 0 10 3 10 13 -1 21
-21 28 -48 17 -68 -8 -15 -6 -17 9 -13 14 3 20 -2 24 -24 6 -34 1 -44 -19 -36
-10 4 -11 9 -4 18 7 8 5 12 -5 12 -7 0 -14 -3 -13 -6 0 -3 0 -13 -1 -21 -1
-13 -2 -13 -11 0 -6 9 -10 10 -10 3 0 -16 -34 -8 -68 15 -45 31 -58 33 -70 7
-6 -14 -7 -27 -3 -30 10 -6 9 -31 -1 -41 -4 -3 -5 2 -4 13 5 25 -5 38 -15 22
-7 -11 -9 -11 -9 -1 0 7 7 20 15 28 8 9 15 20 15 26 0 6 -9 -1 -20 -14 -17
-23 -26 -25 -84 -23 -44 1 -63 -2 -60 -9 3 -6 -3 0 -14 13 -11 14 -22 19 -25
14 -4 -6 -19 -10 -34 -10 -15 0 -29 -6 -31 -12 -2 -6 -8 -8 -14 -5 -7 5 -9 -2
-6 -19 6 -30 -7 -31 -36 -2 -31 30 -50 31 -34 3 16 -31 20 -58 7 -58 -5 0 -8
4 -4 9 11 18 -14 22 -49 7 -19 -8 -37 -12 -40 -9 -3 3 -31 7 -63 8 -90 3 -91
3 -120 35 -31 36 -46 37 -65 8 -11 -17 -16 -19 -23 -8 -6 9 -4 11 5 5 9 -5 11
-4 6 4 -6 9 -11 9 -22 0 -11 -9 -14 -9 -14 1 0 7 -11 1 -24 -13 -30 -32 -101
-43 -116 -18 -6 10 -10 11 -10 4 0 -15 -26 -17 -35 -3 -4 6 1 7 11 3 11 -4 15
-3 10 5 -8 13 27 25 67 24 16 0 27 4 25 10 -5 13 -21 16 -96 19 -31 2 -63 9
-75 19 -48 36 -103 54 -167 56 -36 1 -94 2 -130 3 -36 1 -71 5 -79 10 -7 5
-13 25 -13 45 0 20 -4 34 -8 31 -4 -3 -10 2 -14 10 -6 17 -46 21 -46 4 0 -6
-7 -3 -16 5 -20 21 -23 20 -17 -4 3 -12 0 -20 -6 -20 -7 0 -10 -4 -7 -9 11
-17 -52 -32 -138 -33 -82 -1 -88 -2 -96 -24 -5 -13 -17 -24 -25 -24 -9 0 -14
4 -11 9 6 9 -40 21 -83 21 -18 0 -33 -10 -49 -33 -20 -30 -29 -33 -110 -45
-159 -23 -204 -25 -201 -10 4 19 -11 58 -22 58 -5 0 -9 9 -9 20 0 11 5 20 10
20 6 0 10 11 10 25 0 22 -4 25 -36 25 -28 0 -35 -3 -30 -15 3 -9 -1 -18 -9
-21 -8 -4 -15 -12 -15 -20 0 -8 -6 -14 -14 -14 -9 0 -17 -18 -23 -47 -7 -37
-13 -48 -26 -47 -13 2 -16 -3 -12 -17 4 -11 2 -19 -4 -19 -6 0 -11 -10 -11
-21 0 -12 -11 -32 -25 -45 -14 -13 -25 -32 -25 -43 0 -15 8 -20 45 -23 42 -3
45 -1 45 20 0 18 4 23 16 18 10 -4 25 3 40 19 13 14 30 25 39 25 9 0 15 9 15
25 0 24 35 53 48 40 10 -10 2 -79 -10 -86 -6 -4 -11 -21 -11 -38 0 -17 -6 -31
-12 -31 -7 0 -17 -11 -23 -25 -6 -14 -16 -25 -22 -25 -7 0 -9 -39 -8 -110 l3
-110 32 0 c18 0 33 5 33 10 0 6 9 10 20 10 15 0 20 -7 20 -26 0 -19 -4 -25
-14 -21 -10 4 -13 1 -9 -9 3 -7 11 -14 19 -14 9 0 14 -11 14 -30 0 -25 4 -30
25 -30 18 0 23 -4 19 -15 -7 -17 -54 -21 -54 -5 0 15 -29 12 -46 -4 -16 -17
-19 -46 -4 -46 5 0 28 -17 51 -38 37 -36 39 -40 25 -55 -21 -21 -20 -27 4 -27
11 0 20 5 20 10 0 6 11 10 25 10 20 0 25 5 25 25 0 18 5 25 19 25 13 0 21 8
23 23 2 16 10 22 29 22 18 1 25 -3 22 -12 -6 -16 -2 -16 32 -3 17 7 24 7 20 0
-3 -6 -1 -10 4 -10 6 0 11 -4 11 -10 0 -5 -8 -10 -17 -10 -15 0 -14 -2 3 -16
10 -8 14 -13 7 -10 -6 4 -14 2 -18 -4 -4 -7 -14 -6 -28 2 -20 10 -21 10 -8 -6
8 -9 10 -16 5 -15 -25 4 -64 -2 -64 -11 0 -5 7 -10 15 -10 8 0 15 -4 15 -9 0
-5 9 -12 20 -16 11 -3 19 -12 17 -18 -1 -7 6 -11 15 -11 10 1 14 -4 11 -12 -2
-7 -14 -11 -25 -9 -11 3 -17 1 -14 -3 4 -4 13 -7 19 -7 7 0 13 -8 15 -17 2
-13 -3 -18 -17 -18 -12 0 -21 6 -21 15 0 9 -10 15 -26 15 -20 0 -25 -4 -20
-16 3 -9 6 -19 6 -23 0 -5 17 -7 37 -5 44 3 63 -9 58 -38 -4 -20 -3 -20 15 -3
24 21 42 11 36 -20 -6 -34 6 -42 75 -44 38 -1 40 -3 37 -28 -2 -16 -10 -27
-21 -29 -22 -3 -30 -10 -33 -28 -1 -8 12 -13 43 -13 26 -1 52 -8 62 -17 10 -9
23 -16 30 -16 7 0 9 -5 6 -10 -3 -6 -1 -10 4 -10 6 0 11 -9 11 -20 0 -12 11
-32 25 -46 14 -14 25 -29 25 -34 0 -6 9 -10 20 -10 11 0 20 -7 20 -15 0 -9 9
-15 21 -15 11 0 32 -9 46 -20 27 -21 73 -27 73 -10 0 6 20 10 45 10 45 0 45 0
45 -36 0 -21 -4 -33 -10 -29 -5 3 -10 1 -10 -4 0 -18 5 -26 13 -23 4 1 7 -18
7 -43 0 -45 0 -45 36 -45 24 0 34 -4 32 -12 -3 -7 -10 -13 -16 -13 -7 0 -12
-4 -12 -10 0 -5 13 -10 29 -10 20 1 27 -3 24 -12 -4 -9 6 -13 36 -13 34 0 41
-3 41 -20 0 -14 7 -20 24 -20 44 0 56 -10 56 -46 0 -19 5 -34 11 -34 7 0 20
-10 31 -22 12 -15 22 -19 26 -11 5 8 24 7 70 -1 41 -7 59 -15 53 -21 -7 -7 0
-21 18 -43 23 -26 36 -32 68 -32 28 0 46 -6 59 -21 12 -13 27 -19 42 -16 22 4
23 2 17 -34 -5 -31 -3 -40 9 -45 9 -3 16 -14 16 -23 1 -21 45 -71 64 -71 17 0
29 -75 24 -152 -3 -47 -1 -53 17 -53 11 0 21 -8 23 -18 2 -9 11 -17 20 -17 15
0 15 -2 2 -10 -11 -7 -12 -10 -2 -10 8 0 19 14 25 30 l11 30 113 0 c100 0 115
-2 133 -20 13 -13 33 -20 61 -20 32 0 42 -4 46 -20 3 -13 14 -20 29 -20 17 0
24 -6 24 -20 0 -18 7 -20 81 -20 76 0 81 -1 76 -20 -5 -18 0 -20 44 -20 28 0
49 -5 49 -11 0 -18 33 -46 38 -31 4 14 32 16 32 2 0 -5 9 -10 20 -10 11 0 20
5 20 10 0 6 20 10 45 10 41 0 45 2 45 25 0 19 5 25 21 25 42 0 69 -63 33 -77
-24 -9 2 -20 36 -15 17 2 30 8 30 13 0 5 12 9 26 9 14 0 23 -4 19 -10 -3 -6 5
-10 19 -10 13 0 27 -6 29 -12 3 -7 6 -3 6 9 1 16 -4 20 -17 16 -15 -3 -54 24
-41 28 17 6 49 5 49 -2 0 -4 10 -9 23 -11 16 -2 23 -11 27 -35 3 -18 13 -42
23 -53 23 -27 22 -38 -5 -43 l-23 -4 23 -2 c29 -1 32 -41 2 -41 -16 0 -20 -7
-20 -30 0 -29 2 -30 45 -30 38 0 45 3 45 20 0 13 7 20 20 20 13 0 20 -7 20
-20 0 -17 7 -20 43 -20 35 0 43 -3 43 -18 0 -10 -6 -19 -12 -19 -7 0 -10 7 -8
16 3 9 0 7 -6 -4 -9 -18 -19 -20 -80 -17 -69 4 -70 3 -70 -22 l0 -26 139 0
139 0 8 48 c4 26 8 52 8 57 2 17 75 14 88 -3 10 -13 10 -14 1 -8 -8 4 -13 1
-13 -8 0 -9 7 -16 15 -16 10 0 15 -11 15 -35 0 -32 2 -35 30 -35 24 0 30 4 30
22 l0 22 20 -22 c15 -16 32 -22 65 -22 29 0 45 4 45 13 0 32 -14 56 -33 59
-16 2 -22 11 -24 38 -10 114 -12 120 -44 120 -22 0 -29 5 -29 20 0 13 7 20 20
20 15 0 20 7 20 25 0 16 6 25 15 25 10 0 15 -10 15 -30 0 -27 3 -30 30 -30 27
0 30 3 30 30 0 26 4 30 26 30 23 0 26 -4 22 -25 -3 -13 -1 -22 3 -19 5 3 9 14
9 25 0 17 7 19 65 19 36 0 65 4 65 10 0 5 12 13 26 16 20 5 31 1 48 -17 40
-46 88 -79 112 -79 13 0 24 -4 24 -10 0 -5 9 -10 20 -10 11 0 20 -4 20 -10 0
-5 -4 -10 -10 -10 -5 0 -10 -9 -10 -21 0 -14 5 -19 17 -17 15 3 18 17 21 83 2
44 7 82 11 85 11 7 31 46 31 59 0 7 -22 11 -54 11 l-54 0 7 27 c7 28 8 28 90
28 66 0 84 3 92 17 15 26 84 -3 84 -36 0 -6 10 -12 23 -14 12 -2 22 2 22 9 0
16 30 38 53 39 23 0 22 15 -4 41 -24 24 -19 35 9 20 27 -14 74 -15 52 -1 -11
7 -4 10 26 10 29 0 44 5 48 16 4 10 14 14 25 11 11 -3 22 1 25 8 3 8 21 12 48
12 24 0 43 3 44 9 0 5 6 21 13 35 12 24 18 26 65 24 28 -2 53 0 56 4 3 3 19
13 35 21 19 10 34 28 41 49 8 24 21 39 46 49 31 14 38 23 52 74 10 38 21 58
31 58 9 0 15 9 15 23 0 22 24 65 44 79 6 4 5 12 -2 21 -10 12 -7 16 19 21 45
9 48 8 42 -14 -4 -14 0 -20 11 -20 9 0 16 -5 16 -11 0 -5 5 -7 10 -4 6 3 10
17 10 29 0 13 9 35 20 49 11 14 20 31 20 37 0 7 9 28 21 46 11 18 20 42 19 51
-4 36 1 48 22 58 18 8 22 19 23 58 0 27 -3 51 -7 53 -4 3 -8 18 -8 35 0 28 -2
29 -45 29 -41 0 -45 2 -45 24 0 13 -5 26 -11 28 -5 2 -7 11 -3 22 4 11 9 14
14 6 10 -17 61 5 54 24 -9 23 15 86 32 86 9 0 13 -4 10 -9 -3 -5 6 -14 22 -20
15 -6 37 -18 50 -27 21 -16 22 -15 22 4 0 12 -8 22 -22 25 l-23 6 9 136 c5 74
13 135 18 135 4 0 9 -12 10 -27 1 -16 3 -41 5 -58 2 -16 5 -42 6 -56 1 -17 7
-25 15 -22 7 3 12 -4 12 -18 1 -23 1 -23 12 -5 8 15 8 21 0 24 -17 5 -15 27 4
43 12 10 14 23 10 50 -3 21 -2 41 4 44 5 3 10 26 10 51 0 30 5 46 15 50 19 8
19 19 -1 39 -11 10 -13 19 -6 28 5 7 6 21 1 32 -4 11 -8 31 -8 43 -1 13 -10
35 -21 49 -13 17 -20 41 -20 70 0 47 -14 75 -71 136 -27 30 -41 38 -62 35
l-27 -3 21 -45 c12 -25 25 -53 30 -62 15 -29 10 -40 -13 -36 -18 2 -23 10 -23
34 0 17 -6 38 -13 46 -6 8 -15 29 -18 46 -4 18 -13 32 -21 32 -8 0 -11 5 -7
12 4 7 3 8 -5 4 -7 -5 -23 -9 -37 -11 -19 -2 -24 2 -24 21 0 16 -6 24 -18 24
-25 0 -25 -37 -1 -61 29 -29 21 -53 -18 -57 -28 -3 -31 -1 -26 18 5 18 2 21
-13 18 -24 -4 -29 -31 -9 -51 8 -9 15 -19 15 -23 0 -4 8 -16 18 -27 12 -14 14
-21 5 -24 -10 -4 -10 -7 0 -18 7 -7 16 -10 21 -7 5 3 6 0 2 -6 -4 -7 -3 -12 3
-12 5 0 13 5 16 11 4 6 13 8 21 5 8 -3 14 -3 14 0 0 2 -11 9 -25 14 -29 11
-32 32 -9 51 19 16 50 0 46 -24 -1 -8 4 -17 12 -20 21 -8 49 -72 41 -96 -7
-23 -22 -26 -45 -10 -12 9 -11 10 7 6 29 -7 35 3 17 28 -15 20 -15 20 -35 -5
-19 -24 -20 -25 -34 -6 -8 11 -15 24 -15 29 0 4 -4 5 -10 2 -5 -3 -10 -1 -10
4 0 6 -9 11 -21 11 -13 0 -18 4 -13 13 6 9 4 9 -8 -1 -11 -9 -18 -10 -23 -2
-3 5 -1 10 6 10 8 0 8 4 -1 15 -11 13 -10 14 4 9 9 -3 16 -1 16 5 0 6 -7 11
-15 11 -8 0 -15 8 -15 18 -1 10 -18 25 -46 38 -37 18 -52 20 -79 13 -24 -7
-32 -14 -28 -24 3 -9 -1 -15 -10 -15 -10 0 -18 13 -23 35 -7 39 -11 40 -108
49 -66 5 -86 17 -67 40 28 34 -72 89 -128 71 -14 -4 -21 -15 -21 -30 0 -20 -5
-24 -27 -24 -16 0 -48 -1 -73 -4 -25 -2 -57 0 -72 4 -35 9 -41 0 -23 -34 8
-15 11 -27 7 -28 -27 -3 -46 -9 -55 -18 -6 -6 -20 -11 -31 -10 -19 0 -19 1 2
10 40 15 14 28 -56 27 -37 -1 -95 2 -129 7 -57 7 -62 6 -73 -15 -9 -18 -9 -21
0 -15 8 5 11 3 8 -6 -6 -19 -77 -24 -84 -6 -3 9 -13 13 -24 10 -15 -4 -18 -1
-15 17 5 24 -15 49 -55 71 -35 19 -208 18 -222 -2 -7 -11 -11 -11 -15 -1 -2 6
-9 12 -14 12 -6 0 -8 -4 -5 -9 12 -18 -13 -60 -40 -67 -26 -7 -49 10 -38 28 3
4 -13 8 -35 8 -22 0 -43 5 -46 10 -4 6 -12 7 -18 4 -9 -5 -9 -4 0 6 6 6 27 12
47 12 20 0 34 4 31 8 -6 10 51 24 64 16 5 -4 13 -2 16 4 4 6 3 10 -2 9 -13 -3
-47 13 -58 28 -11 14 -103 32 -145 28 -14 -1 -30 5 -36 13 -9 12 -13 12 -19 2
-5 -8 -4 -11 3 -6 12 7 10 -19 -2 -31 -4 -4 -6 -1 -4 7 2 10 -6 14 -30 15 -18
0 -36 6 -41 13 -8 13 -41 6 -41 -9 0 -5 -3 -8 -7 -8 -5 1 -10 0 -13 -1 -26
-10 -36 -5 -37 19 -2 25 -1 25 7 4 12 -30 18 -29 13 1 -4 18 0 26 16 31 12 3
19 10 16 15 -3 5 -1 11 4 14 5 4 13 1 17 -5 4 -7 3 -9 -2 -6 -5 3 -10 -2 -10
-12 0 -10 6 -18 12 -18 7 0 10 7 6 15 -3 9 -1 13 5 9 5 -3 10 0 10 8 0 8 -4
12 -8 9 -5 -3 -11 5 -14 18 -4 13 -18 32 -33 43 -24 17 -25 17 -12 1 13 -16
12 -18 -5 -15 -11 2 -26 0 -34 -5 -10 -6 -12 -5 -7 2 4 7 5 12 1 12 -7 0 -29
-52 -26 -64 1 -5 -5 -4 -13 3 -13 11 -15 10 -11 -9 3 -17 0 -20 -15 -15 -13 4
-20 2 -20 -6 0 -18 -10 -5 -15 19 -5 26 13 41 45 37 20 -2 26 2 27 17 2 20 1
20 -12 2 -9 -12 -14 -14 -15 -6 0 9 -5 10 -19 2 -15 -7 -24 -6 -36 6 -14 15
-14 18 0 40 8 13 15 27 15 31 0 4 -5 1 -10 -7 -5 -8 -10 -10 -10 -4 0 6 3 14
7 18 4 3 8 16 10 28 3 17 1 19 -12 8 -8 -7 -13 -16 -10 -20 3 -5 1 -11 -4 -15
-5 -3 -8 -14 -6 -25 2 -11 -1 -22 -6 -26 -6 -4 -4 -12 5 -23 14 -15 13 -17
-18 -17 -26 0 -32 4 -28 15 4 10 7 11 10 3 2 -7 8 -9 13 -6 6 3 6 11 -2 20 -6
7 -15 11 -20 8 -15 -9 -10 3 7 16 8 8 14 9 12 4 -2 -5 2 -10 7 -11 6 -2 10 5
10 15 0 9 -5 17 -12 17 -6 0 -14 3 -18 6 -3 4 2 6 12 5 10 0 18 4 18 9 0 6 -8
9 -18 9 -16 -1 -16 0 -2 16 8 9 12 20 8 23 -3 4 -1 7 6 7 8 0 11 -7 7 -17 -6
-17 -5 -17 8 0 10 14 15 15 19 5 5 -12 11 16 8 35 -1 5 3 6 8 3 5 -3 7 -16 4
-29 -4 -22 -4 -22 10 2 12 20 15 21 20 7 4 -10 3 -15 -3 -11 -6 3 -10 2 -10
-3 0 -6 7 -12 15 -16 20 -7 19 -45 -2 -70 -18 -21 -18 -21 5 -2 12 11 22 26
22 35 0 14 2 14 10 1 7 -12 9 -10 7 7 0 12 -6 21 -12 20 -5 -1 -9 8 -9 20 1
13 -3 20 -7 17 -5 -3 -9 2 -9 10 0 23 4 31 14 28 4 -1 15 3 24 10 12 10 14 10
8 1 -4 -7 -3 -13 3 -13 5 0 12 8 14 18 3 12 5 10 6 -7 1 -24 1 -24 17 -5 8 10
12 12 8 4 -7 -13 -5 -13 9 -1 12 10 17 10 17 2 0 -8 6 -7 16 3 8 9 19 14 24
11 12 -8 6 23 -8 37 -7 7 -12 22 -12 34 0 23 22 48 33 38 3 -4 12 6 19 20 8
19 17 26 30 23 10 -3 21 -1 24 4 3 5 2 9 -3 8 -20 -3 -30 2 -30 16 0 11 4 12
11 5 7 -7 16 0 28 22 9 18 17 28 18 21 0 -7 7 -10 17 -6 12 5 14 3 8 -8 -4 -8
3 -4 16 8 25 25 24 31 -9 36 -12 2 -25 7 -29 11 -5 4 -3 6 2 5 6 -2 24 5 42
14 18 9 45 17 60 17 15 0 47 7 71 15 24 9 51 17 61 18 10 2 30 10 44 20 15 9
31 17 37 17 5 0 10 4 10 10 0 14 52 38 97 46 58 9 113 62 113 109 0 32 -4 38
-35 51 -43 18 -60 18 -77 0 -9 -9 -32 -13 -61 -11 -32 1 -47 -2 -47 -11 0 -10
-26 -12 -37 -4 -3 2 -15 6 -29 9 -4 0 0 9 7 19 7 9 9 14 5 10 -5 -4 -16 -2
-25 5 -14 10 -14 10 -3 -5 8 -10 9 -19 3 -22 -5 -3 -11 -1 -13 6 -3 8 -7 6
-11 -5 -3 -9 -1 -19 5 -23 7 -5 8 -2 3 7 -7 11 -6 12 6 3 8 -6 23 -10 33 -8
18 2 18 2 2 -14 -11 -11 -19 -13 -24 -7 -8 12 -22 13 -39 2 -6 -4 -14 -3 -18
3 -4 6 -12 7 -18 4 -7 -4 -9 -4 -5 0 4 5 3 18 -2 31 -5 13 -6 26 -2 30 4 4 8
11 8 16 1 5 2 10 4 12 5 7 7 38 2 32 -4 -4 -7 -11 -7 -16 0 -5 -4 -9 -10 -8
-5 1 -9 5 -7 11 1 5 -2 7 -8 3 -8 -5 -8 -11 -1 -19 7 -9 7 -17 -2 -26 -6 -7
-7 -10 -2 -7 6 3 11 -6 12 -21 0 -15 -1 -19 -4 -9 -2 9 -8 15 -13 12 -5 -3 -7
4 -5 16 6 31 -12 60 -32 52 -12 -5 -15 -2 -11 9 4 8 1 15 -7 15 -8 0 -11 -7
-7 -15 3 -9 1 -13 -5 -9 -10 6 -10 1 -4 -32 1 -2 7 2 14 8 8 6 17 8 20 4 4 -3
7 0 7 8 0 12 2 12 9 -1 13 -19 2 -34 -14 -20 -11 9 -14 7 -12 -9 1 -14 6 -20
15 -16 7 2 11 1 7 -4 -3 -5 2 -16 11 -25 8 -9 12 -21 8 -28 -6 -9 -3 -9 9 1
10 7 17 9 17 3 0 -29 -70 -16 -101 20 -11 13 -18 17 -14 11 6 -13 -9 -16 -70
-14 -16 1 -48 -10 -70 -24 -22 -14 -47 -27 -55 -31 -41 -14 -62 -126 -34 -179
8 -15 12 -30 10 -33 -8 -7 -38 7 -33 15 2 5 -7 18 -20 30 -13 12 -23 18 -23
13 0 -5 5 -12 10 -15 6 -3 10 -12 10 -18 -1 -7 -10 -1 -20 12 -17 19 -18 26
-8 40 12 14 11 14 -4 2 -17 -12 -23 -9 -19 12 1 5 -3 6 -9 2 -7 -4 -3 -16 10
-32 11 -14 17 -30 13 -36 -3 -6 -1 -7 5 -3 7 4 12 1 12 -9 0 -9 -5 -13 -10
-10 -6 4 -18 1 -26 -6 -9 -7 -14 -8 -12 -2 2 6 -1 11 -7 11 -5 0 -9 -5 -7 -11
2 -7 -7 -2 -20 10 -17 16 -27 20 -34 13 -7 -7 -11 -7 -12 2 -3 35 -11 53 -23
50 -8 -2 -11 -1 -7 3 4 4 3 18 -2 31 -9 24 -9 24 15 8 17 -11 24 -23 21 -39
-2 -12 0 -28 5 -36 6 -10 9 -3 7 21 -1 19 -6 41 -12 49 -9 12 -7 13 6 8 10 -3
20 -2 24 4 4 7 10 7 18 0 9 -8 13 -7 13 4 0 7 -3 14 -6 13 -19 -2 -22 4 -10
18 15 19 21 47 8 38 -5 -3 -7 -9 -4 -14 3 -4 -2 -13 -10 -20 -13 -11 -15 -10
-12 6 1 11 6 24 9 30 4 6 1 11 -7 11 -7 0 -12 -8 -10 -17 2 -9 -1 -23 -6 -31
-7 -11 -9 -9 -9 8 0 22 -13 36 -37 39 -10 2 -10 -3 -2 -17 5 -11 8 -23 5 -28
-3 -5 1 -14 9 -21 9 -8 15 -8 15 -2 0 6 6 9 13 8 17 -2 15 -21 -3 -21 -20 0
-61 35 -54 47 7 11 -16 39 -26 33 -5 -3 -15 1 -23 9 -16 16 -27 11 -27 -11 0
-9 5 -11 13 -7 9 6 9 5 0 -8 -7 -8 -9 -19 -5 -24 4 -4 -1 -2 -10 5 -18 13 -25
4 -10 -15 4 -5 0 -2 -9 8 -20 21 -34 11 -17 -11 11 -14 10 -14 -7 0 -11 9 -28
15 -38 14 -9 -2 -15 1 -12 5 8 13 -9 20 -25 9 -9 -5 -10 -9 -4 -9 7 0 14 -7
18 -15 3 -8 2 -14 -2 -14 -4 1 -9 0 -12 -1 -14 -6 -82 -5 -86 1 -6 11 -34 0
-34 -13 0 -6 8 -4 18 3 15 13 16 12 3 -4 -43 -55 -84 -40 -75 26 4 32 -1 56
-19 97 -32 70 -57 97 -106 110 -35 9 -39 14 -35 35 3 19 1 23 -11 19 -8 -3
-12 -11 -8 -18 4 -6 0 -6 -9 2 -10 8 -14 21 -11 35 5 22 5 22 -10 2 -14 -18
-14 -22 1 -40 17 -20 17 -20 -4 -2 -20 17 -22 17 -38 -5 -9 -13 -14 -16 -10
-8 4 8 15 24 25 35 24 28 26 45 6 80 -9 17 -16 26 -17 21 0 -5 -7 -2 -17 5
-15 13 -15 12 -3 -8z m-84 -95 c3 -4 -1 -5 -10 -4 -8 1 -18 5 -22 8 -3 4 1 5
10 4 8 -1 18 -5 22 -8z m-106 -7 c3 -1 -3 -6 -13 -12 -17 -10 -37 -5 -37 10 0
7 31 8 50 2z m1510 -192 c0 -5 -9 -9 -20 -9 -13 0 -18 5 -14 14 6 15 34 11 34
-5z m-710 -29 c0 10 3 11 11 3 8 -8 8 -17 -1 -33 -10 -19 -14 -20 -26 -8 -9 8
-12 22 -8 32 5 14 9 15 15 4 7 -10 9 -10 9 2z m69 -23 c0 -21 -1 -21 -9 -2
-12 28 -12 37 0 30 6 -3 10 -16 9 -28z m35 -165 c3 -5 -1 -9 -9 -9 -8 0 -12 4
-9 9 3 4 7 8 9 8 2 0 6 -4 9 -8z m-551 -262 c-3 -12 -8 -19 -11 -16 -5 6 5 36
12 36 2 0 2 -9 -1 -20z m491 -126 c-6 -21 -4 -25 7 -19 8 5 11 5 7 0 -4 -4 -3
-16 2 -25 7 -13 5 -21 -5 -30 -17 -14 -21 -45 -5 -35 5 3 7 0 5 -7 -3 -8 1
-22 10 -33 8 -11 13 -13 10 -5 -4 12 4 15 36 16 22 1 36 -2 30 -5 -11 -7 -9
-30 5 -65 5 -14 4 -17 -4 -12 -7 4 -12 2 -12 -3 0 -18 19 -12 30 10 8 14 15
17 23 11 7 -5 20 -8 29 -7 9 2 23 -4 30 -13 12 -16 11 -16 -6 -2 -18 14 -19
13 -13 -3 6 -17 2 -18 -63 -14 -50 3 -68 2 -63 -7 3 -6 0 -6 -8 2 -15 14 -43
16 -34 2 3 -6 -1 -7 -9 -4 -15 6 -20 20 -19 51 1 7 -3 10 -8 7 -5 -3 -9 -1 -9
4 0 5 9 12 20 15 14 3 18 11 15 27 -2 13 -7 25 -10 29 -4 3 -4 -7 -1 -22 5
-31 1 -33 -20 -12 -9 8 -11 15 -6 15 8 0 20 28 26 60 1 3 5 11 10 18 5 8 4 18
-3 25 -6 6 -11 7 -12 2 -1 -6 -2 -21 -3 -35 -2 -14 -7 -34 -12 -43 -8 -14 -10
-6 -10 31 1 32 7 54 19 66 9 10 17 22 17 27 0 5 2 9 5 9 3 0 2 -12 -1 -26z
m-1761 -40 c-6 -17 -49 -19 -59 -3 -9 15 13 27 41 21 15 -2 22 -9 18 -18z
m146 -13 c10 -7 11 -13 2 -27 -6 -11 -11 -16 -11 -12 0 4 -10 4 -23 -1 -29
-11 -57 3 -57 29 0 16 7 20 38 20 20 0 43 -4 51 -9z m1161 -7 c0 -8 -19 -13
-24 -6 -3 5 1 9 9 9 8 0 15 -2 15 -3z m-145 -13 c3 -5 2 -12 -3 -15 -5 -3 -9
1 -9 9 0 17 3 19 12 6z m99 -27 c3 -8 2 -12 -4 -9 -6 3 -10 10 -10 16 0 14 7
11 14 -7z m2210 -333 c8 -12 -20 -22 -39 -15 -15 6 -20 26 -9 37 7 7 40 -8 48
-22z m-1396 -3 c-6 -18 -28 -21 -28 -4 0 9 7 16 16 16 9 0 14 -5 12 -12z m933
-41 c-10 -9 -11 -8 -5 6 3 10 9 15 12 12 3 -3 0 -11 -7 -18z m1201 -172 c9
-38 22 -78 28 -87 16 -27 12 -50 -7 -46 -10 2 -22 17 -28 33 -5 17 -22 51 -37
77 -39 66 -37 102 6 96 16 -2 24 -18 38 -73z m-5032 -25 c0 -5 -4 -10 -10 -10
-5 0 -10 5 -10 10 0 6 5 10 10 10 6 0 10 -4 10 -10z m4946 -27 c7 -10 14 -33
14 -51 0 -27 -4 -33 -17 -30 -14 2 -19 15 -21 51 -3 50 3 58 24 30z m-3966
-152 c0 -13 -12 -20 -26 -14 -20 8 -17 19 6 20 11 1 20 -2 20 -6z m60 -1 c0
-5 -10 -10 -22 -9 -22 0 -22 1 -3 9 11 5 21 9 23 9 1 1 2 -3 2 -9z m-103 -26
c-3 -3 -12 -4 -19 -1 -8 3 -5 6 6 6 11 1 17 -2 13 -5z m835 -21 c-6 -2 -9 -10
-6 -15 4 -7 2 -8 -5 -4 -13 9 -5 26 12 25 9 0 8 -2 -1 -6z m116 -6 c22 -14 14
-53 -14 -66 -15 -6 -28 -10 -29 -9 -20 26 -21 44 -7 64 17 22 28 24 50 11z
m-53 -6 c-9 -8 -36 -10 -30 -2 2 4 11 8 20 8 8 0 13 -3 10 -6z m-1695 -27 c0
-8 -4 -12 -10 -9 -5 3 -10 10 -10 16 0 5 5 9 10 9 6 0 10 -7 10 -16z m1487 1
c0 -8 -4 -15 -9 -15 -5 0 -6 -4 -3 -10 5 -9 -32 -16 -59 -11 -4 1 -15 -4 -24
-11 -13 -11 -14 -11 -7 2 6 10 2 9 -12 -3 -16 -14 -23 -15 -29 -6 -4 8 -3 10
4 5 7 -4 12 -2 12 4 0 7 -8 9 -21 5 -29 -9 -66 2 -66 20 0 23 73 32 105 12 6
-5 12 -4 12 2 0 10 17 15 66 19 22 2 31 -2 31 -13z m3350 -120 c-1 -35 -8 -31
-21 13 -5 16 -3 22 7 22 11 0 15 -10 14 -35z m-2809 -8 c7 -5 9 -14 5 -20 -4
-8 -2 -8 9 1 13 10 16 9 21 -7 7 -27 -5 -41 -30 -37 -14 3 -20 0 -17 -8 3 -8
-7 -11 -33 -11 -68 2 -79 5 -99 21 -17 14 -17 15 -1 10 12 -4 17 -2 14 6 -4
14 50 41 64 32 5 -3 9 1 9 8 0 9 3 9 10 -2 8 -13 10 -13 10 2 0 17 15 19 38 5z
m-1505 -24 c-7 -2 -21 -2 -30 0 -10 3 -4 5 12 5 17 0 24 -2 18 -5z m1807 -43
c0 -5 -5 -10 -11 -10 -5 0 -7 5 -4 10 3 6 8 10 11 10 2 0 4 -4 4 -10z m391
-17 c13 -16 12 -17 -3 -4 -10 7 -18 15 -18 17 0 8 8 3 21 -13z m371 -25 c-7
-7 -10 -5 -7 8 5 29 6 30 12 16 3 -8 1 -18 -5 -24z m50 -8 c6 -13 7 -13 7 1 1
12 11 16 46 14 53 -1 67 -12 41 -31 -24 -17 -106 -15 -106 4 0 6 -4 12 -10 12
-5 0 -10 5 -10 10 0 15 24 7 32 -10z m-332 -53 c-10 -9 -14 -9 -17 1 -3 6 -9
10 -14 6 -5 -3 -9 -1 -9 4 0 17 13 21 32 11 16 -9 17 -13 8 -22z m234 -26 c2
-37 0 -41 -21 -41 -17 0 -21 -4 -17 -17 4 -14 3 -13 -8 2 -18 28 -17 98 2 106
26 11 42 -7 44 -50z m16 -61 c0 -5 -2 -10 -4 -10 -3 0 -8 5 -11 10 -3 6 -1 10
4 10 6 0 11 -4 11 -10z m105 -15 c0 -29 -48 -28 -50 1 -1 16 4 21 24 20 19 -1
26 -6 26 -21z m-475 -55 c0 -5 7 -10 16 -10 14 0 15 -2 3 -17 -10 -11 -10 -14
-1 -9 6 4 12 3 12 -2 0 -14 -39 -22 -46 -10 -3 5 -15 8 -25 5 -15 -4 -19 0
-19 24 0 26 4 29 30 29 17 0 30 -4 30 -10z m-250 -36 c0 -8 -4 -12 -10 -9 -5
3 -10 10 -10 16 0 5 5 9 10 9 6 0 10 -7 10 -16z m2250 -14 c0 -11 4 -20 10
-20 5 0 9 -31 8 -72 -1 -40 -3 -67 -5 -60 -9 25 -23 11 -23 -23 0 -21 5 -35
13 -36 10 0 10 -2 0 -6 -7 -2 -13 -11 -13 -20 0 -12 -3 -12 -17 2 -19 19 -21
67 -5 107 6 15 11 42 10 60 -2 60 2 88 12 88 6 0 10 -9 10 -20z m59 3 c0 -10
-4 -27 -9 -38 -7 -16 -9 -13 -9 18 -1 20 4 37 9 37 6 0 10 -8 9 -17z m-4 -152
c3 -5 1 -12 -4 -15 -5 -3 -11 1 -15 9 -6 16 9 21 19 6z m-245 -350 c0 -20 -17
-37 -27 -28 -7 8 7 47 18 47 5 0 9 -9 9 -19z m-2740 -336 c0 -16 -35 -21 -44
-6 -8 12 4 21 26 21 10 0 18 -7 18 -15z m837 -215 c1 -11 -2 -20 -8 -20 -5 0
-9 9 -9 20 0 11 4 20 8 20 4 0 8 -9 9 -20z m299 -83 c4 -4 -2 -7 -14 -7 -12 0
-22 4 -22 9 0 10 26 9 36 -2z m-36 -47 c0 -5 -9 -10 -19 -10 -11 0 -23 5 -26
10 -4 6 5 10 19 10 14 0 26 -4 26 -10z m-75 -39 c3 -5 1 -12 -5 -16 -5 -3 -10
1 -10 9 0 18 6 21 15 7z m70 -30 c3 -5 1 -12 -5 -16 -5 -3 -10 1 -10 9 0 18 6
21 15 7z"/>
<path d="M3410 3349 c0 -15 18 -19 23 -6 3 8 -1 14 -9 14 -8 0 -14 -4 -14 -8z"/>
<path d="M3542 2584 c-1 -13 0 -24 2 -24 7 0 14 40 7 44 -4 3 -8 -6 -9 -20z"/>
<path d="M2750 1876 c0 -2 7 -7 16 -10 8 -3 12 -2 9 4 -6 10 -25 14 -25 6z"/>
<path d="M2760 3611 c0 -5 7 -15 17 -22 15 -13 15 -12 4 9 -12 23 -21 28 -21
13z"/>
<path d="M2896 3603 c-6 -14 -5 -15 5 -6 7 7 10 15 7 18 -3 3 -9 -2 -12 -12z"/>
<path d="M4013 3565 c0 -8 4 -12 9 -9 5 3 6 10 3 15 -9 13 -12 11 -12 -6z"/>
<path d="M3046 3548 c3 -5 10 -6 15 -3 13 9 11 12 -6 12 -8 0 -12 -4 -9 -9z"/>
<path d="M4071 3513 c1 -4 -2 -16 -6 -27 -8 -19 5 -51 20 -51 11 0 14 45 3 51
-4 3 -6 9 -3 14 3 5 1 12 -5 15 -6 4 -10 3 -9 -2z m14 -53 c1 -10 -2 -17 -7
-14 -4 3 -8 15 -8 26 0 26 13 15 15 -12z"/>
<path d="M3945 3491 c-3 -5 -2 -12 3 -15 5 -3 9 1 9 9 0 17 -3 19 -12 6z"/>
<path d="M3651 3442 c-13 -25 2 -38 19 -16 9 10 10 18 3 25 -8 8 -14 5 -22 -9z
m10 -15 c-10 -9 -11 -8 -5 6 3 10 9 15 12 12 3 -3 0 -11 -7 -18z"/>
<path d="M3274 3425 c-5 -11 -10 -13 -19 -5 -8 7 -12 5 -12 -5 0 -8 4 -12 9
-9 4 3 8 -5 9 -18 1 -23 1 -23 9 2 7 23 8 23 9 3 1 -30 43 -54 56 -33 3 5 13
7 23 5 13 -2 17 4 18 29 l1 31 -14 -30 -14 -30 6 30 c4 16 3 27 -1 23 -4 -4
-14 -2 -22 5 -13 9 -14 9 -8 0 4 -7 5 -13 2 -13 -2 0 -13 -3 -23 -7 -16 -6
-17 -5 -3 13 14 18 14 18 -4 4 -18 -14 -19 -13 -13 3 3 9 4 17 1 17 -2 0 -7
-7 -10 -15z m62 -37 c-1 -13 -9 -23 -17 -24 -24 -1 -30 7 -18 22 6 7 15 11 20
8 5 -3 9 0 9 5 0 6 2 11 5 11 3 0 3 -10 1 -22z"/>
<path d="M3306 3382 c-3 -5 1 -9 9 -9 8 0 12 4 9 9 -3 4 -7 8 -9 8 -2 0 -6 -4
-9 -8z"/>
<path d="M3183 3337 c0 -13 60 -18 72 -6 3 3 -7 5 -22 4 -16 -1 -33 2 -39 6
-6 5 -11 3 -11 -4z"/>
<path d="M3557 3274 c-3 -3 -3 -18 -1 -32 4 -26 4 -26 -11 -7 -15 19 -16 19
-12 -3 4 -29 22 -48 32 -32 4 7 11 8 19 1 21 -17 17 25 -4 44 -11 10 -17 22
-14 26 6 10 0 12 -9 3z m33 -57 c0 -6 -3 -7 -7 -4 -3 4 -12 2 -19 -4 -8 -7
-14 -7 -19 1 -4 6 -1 9 7 8 7 -2 12 5 12 15 -2 14 1 15 12 6 8 -6 14 -16 14
-22z"/>
<path d="M1137 2995 c-18 -13 -18 -14 3 -25 17 -9 24 -9 30 0 4 6 10 11 14 11
3 -1 6 1 6 4 0 3 0 10 0 15 0 14 -32 12 -53 -5z"/>
<path d="M863 2983 c-18 -7 10 -33 35 -33 15 0 19 5 15 20 -5 19 -24 24 -50
13z"/>
<path d="M6221 2961 c-10 -7 -10 -14 3 -37 26 -48 91 -137 103 -141 14 -5 28
58 20 86 -4 15 -1 18 12 14 9 -4 13 -3 9 2 -4 4 -3 15 1 24 5 9 5 27 0 40 -13
33 -37 11 -41 -37 l-3 -37 -46 47 c-30 31 -49 44 -58 39z"/>
<path d="M812 2908 c-14 -14 -16 -28 -3 -28 5 0 11 9 14 20 6 23 5 24 -11 8z"/>
<path d="M490 2891 c0 -6 -7 -11 -15 -11 -17 0 -21 -35 -5 -45 16 -10 12 -25
-7 -26 -10 0 -13 -3 -7 -5 6 -3 8 -19 6 -37 l-5 -32 22 19 c11 11 21 27 21 38
0 10 5 18 10 18 16 0 12 60 -5 76 -8 9 -15 11 -15 5z"/>
<path d="M928 2886 c-23 -17 -23 -29 0 -49 36 -32 72 -11 72 42 0 16 -6 21
-27 21 -16 0 -36 -7 -45 -14z"/>
<path d="M3046 2865 c10 -8 14 -15 7 -15 -7 0 -10 -7 -7 -15 4 -8 1 -15 -5
-15 -5 0 -15 -8 -20 -18 -9 -16 -6 -19 17 -17 24 1 27 5 26 32 -2 26 2 31 17
28 11 -2 17 0 14 6 -4 5 -10 7 -15 4 -4 -3 -13 2 -20 10 -7 8 -17 15 -23 15
-6 0 -2 -7 9 -15z"/>
<path d="M6379 2838 c-10 -33 6 -46 28 -24 4 4 1 6 -7 4 -8 -1 -14 3 -12 10 2
10 -6 19 -9 10z"/>
<path d="M3835 2821 c-3 -6 -15 -8 -26 -6 -17 3 -19 1 -9 -10 7 -8 7 -15 1
-19 -5 -3 -12 0 -14 6 -3 7 -6 8 -6 2 -1 -5 5 -18 12 -29 11 -14 16 -15 22 -5
5 9 4 11 -3 6 -7 -4 -12 -3 -12 3 0 11 20 26 34 26 5 0 10 8 12 18 2 19 -2 22
-11 8z"/>
<path d="M3590 2795 c-1 -5 -3 -18 -5 -27 -2 -10 1 -18 6 -18 6 0 7 -6 3 -12
-5 -9 -2 -9 9 1 17 14 24 57 8 47 -5 -4 -12 0 -14 6 -3 7 -6 9 -7 3z"/>
<path d="M3693 2784 c1 -19 12 -23 37 -14 3 1 9 2 13 1 5 -1 6 3 2 9 -5 8 -11
8 -20 0 -10 -8 -16 -7 -24 7 -9 16 -10 16 -8 -3z"/>
<path d="M6282 2730 c0 -19 2 -27 5 -17 2 9 2 25 0 35 -3 9 -5 1 -5 -18z"/>
<path d="M2148 2718 c9 -9 15 -9 24 0 9 9 7 12 -12 12 -19 0 -21 -3 -12 -12z"/>
<path d="M3570 2705 c-7 -8 -11 -15 -9 -16 37 -7 40 -7 30 5 -6 7 -8 16 -4 19
3 4 4 7 1 7 -3 0 -11 -7 -18 -15z"/>
<path d="M372 2630 c0 -14 2 -19 5 -12 2 6 2 18 0 25 -3 6 -5 1 -5 -13z"/>
<path d="M6340 2641 c0 -6 5 -13 10 -16 6 -3 10 1 10 9 0 9 -4 16 -10 16 -5 0
-10 -4 -10 -9z"/>
<path d="M3817 2613 c14 -21 11 -27 -9 -24 -5 0 -8 -5 -8 -12 0 -8 10 -13 25
-13 36 2 41 14 17 37 -13 11 -20 24 -18 28 3 4 -1 8 -9 8 -11 0 -10 -5 2 -24z
m33 -27 c0 -2 -7 -7 -16 -10 -8 -3 -12 -2 -9 4 6 10 25 14 25 6z"/>
<path d="M5205 2580 c-3 -5 3 -10 14 -10 12 0 21 5 21 10 0 6 -6 10 -14 10 -8
0 -18 -4 -21 -10z"/>
<path d="M6380 2569 c0 -11 4 -18 10 -14 5 3 7 12 3 20 -7 21 -13 19 -13 -6z"/>
<path d="M296 2544 c-4 -11 -13 -13 -27 -9 -18 6 -21 4 -16 -10 6 -14 2 -16
-26 -10 -17 4 -41 14 -52 21 -11 8 -27 14 -37 14 -20 0 -37 -22 -20 -28 6 -2
8 -10 5 -18 -3 -9 1 -14 12 -14 9 0 13 -4 10 -10 -3 -5 1 -10 10 -10 9 0 13 5
10 10 -3 6 -1 10 4 10 6 0 11 -4 11 -10 0 -5 20 -10 45 -10 29 0 45 4 45 13 0
7 14 12 35 13 19 0 46 7 60 14 25 13 25 14 5 32 -24 22 -66 24 -74 2z"/>
<path d="M5407 2553 c-10 -21 0 -38 26 -41 15 -2 25 -7 22 -12 -3 -5 3 -7 14
-5 11 2 29 1 41 -2 19 -5 21 -11 16 -44 -3 -21 -2 -40 3 -43 14 -9 29 17 26
44 -2 14 -4 31 -4 37 -1 7 -12 15 -26 19 -14 3 -25 9 -25 13 0 10 -56 41 -73
41 -9 0 -18 -3 -20 -7z"/>
<path d="M5300 2540 c0 -5 5 -10 11 -10 5 0 7 5 4 10 -3 6 -8 10 -11 10 -2 0
-4 -4 -4 -10z"/>
<path d="M4795 2518 c-11 -7 -45 -13 -75 -14 -30 -1 -56 -7 -58 -13 -2 -7 16
-10 50 -9 29 0 72 -2 95 -7 30 -5 47 -3 63 8 l21 15 -23 16 c-26 19 -45 20
-73 4z"/>
<path d="M4950 2495 c0 -17 14 -18 45 -5 22 9 22 10 -17 16 -21 3 -28 1 -28
-11z"/>
<path d="M0 2480 c0 -5 5 -10 11 -10 5 0 7 5 4 10 -3 6 -8 10 -11 10 -2 0 -4
-4 -4 -10z"/>
<path d="M73 2467 c-30 -13 -29 -35 1 -43 29 -7 49 3 42 21 -2 7 0 17 5 22 13
13 -21 13 -48 0z"/>
<path d="M5 2449 c-4 -6 -5 -12 -2 -15 2 -3 7 2 10 11 7 17 1 20 -8 4z"/>
<path d="M140 2400 c-8 -5 -11 -10 -6 -10 5 0 -3 -9 -17 -20 -14 -11 -30 -20
-36 -20 -6 0 -11 -8 -11 -18 0 -11 -11 -24 -25 -30 -27 -13 -33 -39 -11 -48
23 -9 73 23 80 50 8 32 65 61 106 52 27 -5 30 -3 30 21 0 14 -3 24 -6 20 -3
-3 -17 -1 -31 4 -20 7 -30 6 -47 -8 -19 -17 -20 -17 -7 0 15 19 5 22 -19 7z"/>
<path d="M280 2340 c0 -5 9 -10 20 -10 11 0 20 5 20 10 0 6 -9 10 -20 10 -11
0 -20 -4 -20 -10z"/>
<path d="M6046 2228 c10 -73 52 -200 72 -220 9 -9 12 -9 12 2 0 29 -12 60 -22
54 -5 -3 -6 5 -2 21 3 14 1 45 -5 68 -7 23 -14 56 -15 72 -2 17 -4 33 -5 38 0
4 -10 7 -21 7 -18 0 -20 -5 -14 -42z"/>
<path d="M130 2207 c-8 -20 -9 -20 -9 -3 -1 20 -1 20 -16 0 -8 -10 -15 -27
-15 -36 0 -10 -6 -18 -14 -18 -21 0 -29 -32 -12 -48 11 -11 19 -12 28 -5 23
18 72 10 77 -12 4 -23 21 -37 38 -30 6 2 25 0 41 -4 33 -10 52 10 52 54 0 14
5 25 10 25 6 0 3 11 -6 25 -9 14 -21 22 -27 18 -6 -4 -8 0 -5 9 4 8 0 15 -8
15 -7 0 -11 -3 -9 -7 4 -7 -31 -40 -43 -40 -4 0 -12 14 -17 32 -13 42 -52 57
-65 25z"/>
<path d="M60 2050 c0 -5 7 -10 15 -10 8 0 15 5 15 10 0 6 -7 10 -15 10 -8 0
-15 -4 -15 -10z"/>
<path d="M6517 1836 c-3 -8 1 -17 9 -20 9 -4 14 1 14 14 0 23 -15 27 -23 6z"/>
<path d="M1043 1803 c-3 -10 -8 -21 -10 -25 -2 -4 2 -5 9 -3 8 3 14 14 14 25
0 25 -5 25 -13 3z"/>
<path d="M6435 1771 c-6 -11 20 -33 28 -24 4 3 7 10 7 14 0 11 -29 19 -35 10z"/>
<path d="M1054 1756 c1 -9 7 -21 13 -27 6 -6 9 -19 6 -28 -3 -9 2 -6 11 7 10
12 22 20 27 16 6 -3 3 -11 -7 -19 -16 -11 -15 -12 10 -10 28 3 50 15 27 15 -7
0 -9 5 -5 12 5 8 11 6 20 -7 12 -16 13 -16 11 2 -1 15 -8 19 -27 18 -14 -1
-31 3 -38 8 -9 7 -12 7 -10 0 2 -6 -1 -11 -7 -12 -5 -1 -10 3 -10 9 0 5 -5 14
-12 21 -9 9 -11 8 -9 -5z"/>
<path d="M1033 1737 c1 -16 7 -33 13 -38 14 -12 13 2 -4 41 l-11 25 2 -28z"/>
<path d="M6651 1724 c0 -11 3 -14 6 -6 3 7 2 16 -1 19 -3 4 -6 -2 -5 -13z"/>
<path d="M101 1415 c-1 -6 -11 -15 -23 -20 -23 -10 -78 -106 -78 -136 0 -9 7
-22 15 -29 8 -7 15 -21 15 -31 0 -26 30 -59 53 -59 16 0 18 -6 15 -30 -3 -16
-2 -28 0 -25 3 3 11 0 18 -6 10 -9 15 -7 20 5 3 9 10 13 16 10 5 -3 5 -10 0
-17 -13 -17 -24 -67 -15 -67 5 0 8 -14 7 -31 -1 -45 18 -109 33 -109 9 0 11
-12 7 -42 -5 -37 -3 -45 17 -58 12 -8 38 -30 58 -47 19 -18 41 -33 48 -33 7 0
13 -4 13 -10 0 -5 11 -12 24 -16 13 -3 28 -16 35 -30 6 -13 15 -24 21 -24 5 0
10 -12 10 -26 0 -14 5 -35 12 -47 7 -12 11 -32 9 -44 -1 -12 7 -31 18 -42 22
-22 37 -28 27 -12 -7 10 13 9 31 -2 6 -4 18 -4 27 -1 11 4 16 1 16 -10 0 -9
-6 -16 -12 -16 -10 0 -9 -3 1 -9 11 -7 11 -9 0 -14 -10 -4 -11 -8 -3 -14 6 -4
14 -18 18 -30 7 -21 14 -23 76 -23 45 0 74 -5 82 -13 7 -8 20 -12 30 -9 16 4
18 -3 18 -57 0 -34 -4 -61 -10 -61 -5 0 -10 -8 -10 -17 0 -28 47 -43 136 -43
91 0 94 -2 94 -82 l0 -38 56 0 c32 0 53 4 49 9 -3 6 14 11 37 13 33 2 45 8 53
26 10 22 25 30 25 13 0 -6 15 -11 33 -13 24 -2 33 -8 35 -25 3 -19 10 -23 38
-23 19 0 33 3 33 8 -4 26 3 42 21 42 11 0 20 -4 20 -10 0 -5 9 -10 20 -10 11
0 23 -7 26 -15 5 -13 67 -15 470 -15 l464 0 1 33 c1 17 0 40 -1 51 -1 11 3 16
9 11 6 -3 14 1 17 10 5 12 16 15 45 12 24 -3 39 0 39 7 0 6 4 5 9 -3 6 -9 10
-10 16 -2 5 9 10 9 21 0 11 -9 14 -8 14 2 0 10 2 11 8 2 15 -23 28 2 28 54 0
39 -3 53 -13 53 -8 0 -12 4 -9 8 3 5 -1 9 -9 9 -8 0 -12 -4 -9 -9 3 -4 0 -8
-5 -8 -6 0 -11 6 -11 13 0 8 -4 7 -10 -3 -9 -13 -10 -13 -10 0 0 10 -3 11 -8
4 -4 -6 -26 -11 -49 -11 -32 -1 -42 4 -46 17 -3 11 -12 17 -23 16 -11 -2 -23
-1 -28 2 -5 3 -40 4 -78 3 -54 -2 -69 1 -74 13 -3 9 -10 13 -15 10 -5 -3 -9
13 -9 35 0 38 -1 39 -32 37 l-33 -3 3 -63 c2 -35 5 -68 9 -73 3 -5 -8 -7 -25
-6 -16 2 -37 -3 -46 -10 -9 -7 -29 -11 -45 -9 -17 2 -28 1 -25 -4 3 -4 -7 -4
-21 2 -14 5 -29 9 -33 9 -30 -5 -82 3 -77 11 3 6 -3 10 -15 10 -22 0 -50 21
-50 38 0 5 -7 9 -14 9 -8 0 -14 -5 -13 -10 1 -6 -17 -11 -40 -12 -30 -2 -43 2
-48 13 -5 13 -7 13 -18 -2 -9 -12 -23 -17 -42 -14 -24 2 -31 8 -33 31 -3 21
-7 27 -19 22 -9 -3 -20 0 -24 6 -5 8 -28 12 -63 10 -42 -1 -56 1 -54 11 2 7
-3 12 -9 10 -7 -1 -13 5 -13 13 0 17 -25 20 -35 5 -17 -28 -145 0 -145 32 0
27 38 23 42 -4 3 -20 9 -23 48 -24 l45 -1 -3 116 c-2 64 -6 118 -9 121 -2 2
-52 6 -109 8 -78 3 -107 8 -111 18 -3 8 -18 14 -34 14 -16 0 -32 6 -35 14 -3
8 -15 11 -31 8 -14 -3 -28 0 -32 7 -4 6 -37 14 -74 18 -56 5 -67 9 -67 24 0
14 -7 19 -25 19 -18 0 -25 -5 -25 -20 0 -11 -4 -20 -10 -20 -5 0 -10 14 -10
30 0 17 -4 30 -10 30 -5 0 -10 11 -10 24 0 19 -5 23 -27 22 -23 -1 -29 5 -37
34 -6 19 -16 41 -22 48 -15 14 -44 16 -44 2 0 -21 -70 -10 -95 15 -14 13 -25
27 -25 30 0 10 -28 35 -39 35 -6 0 -11 5 -11 10 0 6 -32 10 -75 10 -61 0 -75
3 -75 15 0 9 -11 20 -25 25 -19 7 -25 17 -25 40 0 25 -4 30 -25 30 -22 0 -29
-9 -27 -31 1 -3 -6 -6 -14 -6 -18 0 -18 6 3 29 10 11 13 18 8 16 -6 -2 -11 0
-13 5 -5 16 -1 19 13 7 20 -16 23 -13 31 38 5 35 4 42 -10 42 -10 0 -14 5 -11
10 3 6 2 10 -4 10 -6 0 -8 8 -4 18 3 9 3 14 -2 10 -4 -4 -15 -2 -23 5 -13 10
-14 9 -7 -3 7 -12 6 -13 -7 -3 -8 7 -18 10 -21 6 -4 -3 -7 -1 -7 6 0 8 -7 10
-20 6 -23 -7 -26 6 -9 37 9 16 13 18 19 8 14 -22 24 57 12 93 -5 18 -10 27
-11 22z m79 -284 c0 -6 -9 -8 -20 -6 -11 2 -19 1 -18 -3 3 -14 -14 -42 -23
-37 -17 11 14 55 38 55 12 0 23 -4 23 -9z m410 -331 c0 -43 -3 -50 -20 -50
-11 0 -20 7 -20 15 0 8 -3 14 -7 14 -5 -1 -16 -1 -26 0 -24 1 -11 21 14 21 14
0 19 7 19 25 0 18 5 25 20 25 17 0 20 -7 20 -50z m456 -233 c1 -10 -2 -14 -9
-10 -7 4 -8 0 -3 -13 5 -14 4 -16 -4 -8 -18 18 -20 52 -3 50 9 -2 17 -10 19
-19z m-36 -27 c0 -5 -11 -10 -25 -10 -14 0 -25 5 -25 10 0 6 11 10 25 10 14 0
25 -4 25 -10z m-467 -17 c-7 -2 -21 -2 -30 0 -10 3 -4 5 12 5 17 0 24 -2 18
-5z m764 -65 c-3 -59 -27 -63 -27 -4 0 33 4 46 14 46 10 0 14 -12 13 -42z
m1040 -220 c-3 -8 -6 -5 -6 6 -1 11 2 17 5 13 3 -3 4 -12 1 -19z m20 0 c-3 -8
-6 -5 -6 6 -1 11 2 17 5 13 3 -3 4 -12 1 -19z m-677 -135 c0 -7 5 -13 10 -13
6 0 10 -9 10 -20 0 -11 -4 -20 -10 -20 -5 0 -10 5 -10 10 0 6 -16 10 -35 10
-31 0 -34 3 -31 23 5 27 0 23 36 23 18 0 30 -5 30 -13z m-110 -33 c0 -11 -7
-20 -15 -20 -8 0 -15 5 -15 10 0 6 -9 10 -20 10 -11 0 -20 5 -20 10 0 6 16 10
35 10 28 0 35 -4 35 -20z"/>
<path d="M5926 1353 c-10 -24 -5 -192 5 -199 5 -3 9 0 9 5 0 6 6 11 13 11 9 0
12 11 9 37 -3 24 0 40 10 47 22 16 31 63 14 69 -10 4 -12 14 -8 29 5 21 4 22
-11 9 -11 -9 -17 -10 -17 -2 0 17 -17 13 -24 -6z"/>
<path d="M6050 1266 c0 -18 26 -40 34 -27 9 14 -4 41 -20 41 -8 0 -14 -6 -14
-14z"/>
<path d="M5870 1120 c0 -11 6 -20 14 -20 9 0 12 7 9 20 -3 11 -9 20 -14 20 -5
0 -9 -9 -9 -20z"/>
<path d="M4710 400 c0 -5 5 -10 10 -10 6 0 10 5 10 10 0 6 -4 10 -10 10 -5 0
-10 -4 -10 -10z"/>
<path d="M5050 400 c0 -5 7 -10 16 -10 8 0 12 5 9 10 -3 6 -10 10 -16 10 -5 0
-9 -4 -9 -10z"/>
<path d="M3430 260 c0 -5 5 -10 10 -10 6 0 10 5 10 10 0 6 -4 10 -10 10 -5 0
-10 -4 -10 -10z"/>
<path d="M4350 246 c0 -16 21 -26 55 -26 18 0 22 4 18 20 -4 15 -14 20 -39 20
-22 0 -34 -5 -34 -14z"/>
<path d="M1926 218 c3 -5 10 -6 15 -3 13 9 11 12 -6 12 -8 0 -12 -4 -9 -9z"/>
<path d="M4231 170 c1 -43 6 -60 15 -60 8 0 15 -12 15 -27 1 -16 3 -35 4 -43
1 -8 3 -21 4 -28 1 -17 68 -13 68 4 0 7 -5 10 -10 7 -6 -4 -6 0 0 11 6 10 5
33 -1 60 -8 36 -16 46 -43 57 -18 7 -32 18 -32 23 3 29 -2 56 -11 56 -6 0 -10
-24 -9 -60z"/>
<path d="M4780 201 c0 -10 24 -21 46 -21 8 0 14 7 14 15 0 10 -10 15 -30 15
-16 0 -30 -4 -30 -9z"/>
<path d="M4850 169 c0 -5 5 -7 10 -4 6 3 10 8 10 11 0 2 -4 4 -10 4 -5 0 -10
-5 -10 -11z"/>
<path d="M4856 96 l1 -54 -43 -7 c-23 -3 -45 -12 -48 -20 -4 -12 11 -14 89
-14 l95 1 0 38 c0 21 3 45 6 54 4 11 1 16 -10 16 -9 0 -16 -5 -16 -11 0 -7
-11 0 -24 14 -16 17 -26 22 -29 14 -3 -7 -6 -4 -6 6 -1 9 -4 17 -9 17 -4 0 -7
-24 -6 -54z"/>
<path d="M3370 20 c0 -17 7 -20 50 -20 28 0 50 5 50 10 0 6 -9 10 -20 10 -11
0 -20 5 -20 10 0 6 -13 10 -30 10 -23 0 -30 -4 -30 -20z"/>
<path d="M4395 10 c3 -5 19 -10 36 -10 16 0 29 5 29 10 0 6 -16 10 -36 10 -21
0 -33 -4 -29 -10z"/>
</g>
</svg>
